<?xml version="1.0" encoding="utf-8"?>
<COLLADA xmlns="http://www.collada.org/2005/11/COLLADASchema" version="1.4.1" xmlns:xsi="http://www.w3.org/2001/XMLSchema-instance">
  <asset>
    <contributor>
      <author>Blender User</author>
      <authoring_tool>Blender 3.6.23 commit date:2025-06-16, commit time:11:52, hash:e467db79ca8c</authoring_tool>
    </contributor>
    <created>2026-06-11T22:13:38</created>
    <modified>2026-06-11T22:13:38</modified>
    <unit name="meter" meter="1"/>
    <up_axis>Z_UP</up_axis>
  </asset>
  <library_cameras>
    <camera id="Camera-camera" name="Camera">
      <optics>
        <technique_common>
          <perspective>
            <xfov sid="xfov">39.59775</xfov>
            <aspect_ratio>1.777778</aspect_ratio>
            <znear sid="znear">0.1</znear>
            <zfar sid="zfar">100</zfar>
          </perspective>
        </technique_common>
      </optics>
      <extra>
        <technique profile="blender">
          <shiftx sid="shiftx" type="float">0</shiftx>
          <shifty sid="shifty" type="float">0</shifty>
          <dof_distance sid="dof_distance" type="float">10</dof_distance>
        </technique>
      </extra>
    </camera>
  </library_cameras>
  <library_lights>
    <light id="Light-light" name="Light">
      <technique_common>
        <point>
          <color sid="color">1000 1000 1000</color>
          <constant_attenuation>1</constant_attenuation>
          <linear_attenuation>0</linear_attenuation>
          <quadratic_attenuation>0.00111109</quadratic_attenuation>
        </point>
      </technique_common>
      <extra>
        <technique profile="blender">
          <type sid="type" type="int">0</type>
          <flag sid="flag" type="int">0</flag>
          <mode sid="mode" type="int">1</mode>
          <gamma sid="blender_gamma" type="float">1</gamma>
          <red sid="red" type="float">1</red>
          <green sid="green" type="float">1</green>
          <blue sid="blue" type="float">1</blue>
          <shadow_r sid="blender_shadow_r" type="float">0</shadow_r>
          <shadow_g sid="blender_shadow_g" type="float">0</shadow_g>
          <shadow_b sid="blender_shadow_b" type="float">0</shadow_b>
          <energy sid="blender_energy" type="float">1000</energy>
          <dist sid="blender_dist" type="float">29.99998</dist>
          <spotsize sid="spotsize" type="float">75</spotsize>
          <spotblend sid="spotblend" type="float">0.15</spotblend>
          <att1 sid="att1" type="float">0</att1>
          <att2 sid="att2" type="float">1</att2>
          <falloff_type sid="falloff_type" type="int">2</falloff_type>
          <clipsta sid="clipsta" type="float">0.04999995</clipsta>
          <clipend sid="clipend" type="float">30.002</clipend>
          <bias sid="bias" type="float">1</bias>
          <bufsize sid="bufsize" type="int">2880</bufsize>
          <samp sid="samp" type="int">3</samp>
          <buffers sid="buffers" type="int">1</buffers>
          <radius sid="radius" type="float">0.1</radius>
          <area_shape sid="area_shape" type="int">1</area_shape>
          <area_size sid="area_size" type="float">0.1</area_size>
          <area_sizey sid="area_sizey" type="float">0.1</area_sizey>
          <area_sizez sid="area_sizez" type="float">1</area_sizez>
        </technique>
      </extra>
    </light>
  </library_lights>
  <library_effects>
    <effect id="Material_002-effect">
      <profile_COMMON>
        <technique sid="common">
          <lambert>
            <emission>
              <color sid="emission">0 0 0 1</color>
            </emission>
            <diffuse>
              <color sid="diffuse">0 0 0 1</color>
            </diffuse>
            <reflectivity>
              <float sid="specular">0.5</float>
            </reflectivity>
          </lambert>
        </technique>
      </profile_COMMON>
    </effect>
    <effect id="Material_001-effect">
      <profile_COMMON>
        <technique sid="common">
          <lambert>
            <emission>
              <color sid="emission">0 0 0 1</color>
            </emission>
            <diffuse>
              <color sid="diffuse">0.598397 0.4829958 0 1</color>
            </diffuse>
            <reflectivity>
              <float sid="specular">0.5</float>
            </reflectivity>
          </lambert>
        </technique>
      </profile_COMMON>
    </effect>
  </library_effects>
  <library_images/>
  <library_materials>
    <material id="Material_002-material" name="Material.002">
      <instance_effect url="#Material_002-effect"/>
    </material>
    <material id="Material_001-material" name="Material.001">
      <instance_effect url="#Material_001-effect"/>
    </material>
  </library_materials>
  <library_geometries>
    <geometry id="Text-mesh" name="Text">
      <mesh>
        <source id="Text-mesh-positions">
          <float_array id="Text-mesh-positions-array" count="717">2.902 0.6820001 0 2.902 0 0 3 0 0 3 0.295 0 3.139716 0.2967147 0 3.173898 0.3017176 0 3.204594 0.3097969 0 3.231852 0.3207408 0 3.255721 0.3343374 0 3.27625 0.350375 0 3.293488 0.3686418 0 3.307482 0.388926 0 3.318282 0.4110156 0 3.325936 0.4346991 0 3.330492 0.4597645 0 3.332 0.486 0 3.330576 0.512544 0 3.326273 0.5380186 0 3.319047 0.5621876 0 3.308852 0.5848149 0 3.295643 0.6056644 0 3.279375 0.6245 0 3.260003 0.6410857 0 3.237481 0.6551852 0 3.211766 0.6665626 0 3.18281 0.6749815 0 3.15057 0.6802061 0 3 0.5940001 0 3.115 0.5940001 0 3.135979 0.5929086 0 3.154495 0.5897686 0 3.170672 0.5847813 0 3.18463 0.5781482 0 3.19649 0.5700706 0 3.206375 0.56075 0 3.214406 0.5503877 0 3.220704 0.5391852 0 3.225391 0.5273438 0 3.228588 0.5150648 0 3.230417 0.5025498 0 3.231 0.49 0 3.230033 0.4736099 0 3.22718 0.458463 0 3.222516 0.4445937 0 3.216111 0.432037 0 3.20804 0.4208275 0 3.198375 0.411 0 3.187189 0.4025891 0 3.174556 0.3956296 0 3.160547 0.3901562 0 3.145236 0.3862037 0 3.128696 0.3838067 0 3 0.383 0 2.772 0.6820001 0 2.674 0.6820001 0 2.672203 0.2396406 0 2.668459 0.212364 0 2.662062 0.1874902 0 2.652484 0.1650469 0 2.646338 0.1547453 0 2.639199 0.1450619 0 2.631 0.136 0 2.622772 0.1284056 0 2.603469 0.1143281 0 2.580415 0.1021255 0 2.553668 0.09227025 0 2.523281 0.08523434 0 2.489311 0.08149015 0 2.456459 0.0813964 0 2.428625 0.08457809 0 2.402458 0.09096813 0 2.377959 0.1005943 0 2.355125 0.1134844 0 2.333958 0.1296661 0 2.316681 0.1467963 0 2.304516 0.163125 0 2.299592 0.1719629 0 2.295392 0.1814537 0 2.289004 0.2030046 0 2.285047 0.229 0 2.283 0.6820001 0 2.185 0.6820001 0 2.187838 0.2136736 0 2.196037 0.1736389 0 2.209125 0.1378124 0 2.22663 0.1061111 0 2.248079 0.07845133 0 2.273 0.05474996 0 2.300921 0.03492355 0 2.33137 0.01888883 0 2.363875 0.006562411 0 2.397963 -0.002138912 0 2.433162 -0.007298648 0 2.469 -0.008999943 0 2.517606 -0.00673896 0 2.561931 -7.87037e-5 0 2.601984 0.01079684 0 2.637778 0.02570366 0 2.669321 0.04445773 0 2.696625 0.06687498 0 2.7197 0.09277141 0 2.738556 0.121963 0 2.753203 0.1542656 0 2.763653 0.1894953 0 2.769915 0.2274681 0 1.753 0.359 0 2.05 0.6820001 0 1.928 0.6820001 0 1.641 0.37 0 1.641 0.6820001 0 1.543 0.6820001 0 1.543 0 0 1.641 0 0 1.641 0.337 0 1.988 0 0 2.123 0 0 1.416 0.6350001 0 1.329556 0.6668519 0 1.253111 0.6851482 0 1.182 0.6910001 0 1.129056 0.6878889 0 1.078949 0.6787778 0 1.032016 0.664 0 0.9885926 0.643889 0 0.9490168 0.6187778 0 0.913625 0.5890001 0 0.882754 0.5548889 0 0.8567407 0.5167778 0 0.8359218 0.475 0 0.8206342 0.4298889 0 0.8112146 0.3817778 0 0.808 0.331 0 0.8103519 0.2942703 0 0.8174815 0.2561621 0 0.8295 0.2175468 0 0.8465185 0.1792963 0 0.8686482 0.1422818 0 0.896 0.1073749 0 0.9286853 0.07544726 0 0.9668149 0.04737031 0 1.0105 0.02401554 0 1.059852 0.006254553 0 1.114982 -0.005041122 0 1.176 -0.008999943 0 1.272704 -0.001222193 0 1.3145 0.007874965 0 1.352963 0.01988887 0 1.423 0.05099999 0 1.423 0.158 0 1.344185 0.1158148 0 1.304 0.10075 0 1.263815 0.08985185 0 1.224019 0.0832315 0 1.185 0.08099997 0 1.145118 0.08317416 0 1.107611 0.08956015 0 1.072688 0.09995311 0 1.040556 0.1141481 0 1.011424 0.1319404 0 0.9855002 0.153125 0 0.9629933 0.1774971 0 0.9441114 0.2048518 0 0.9290627 0.2349843 0 0.9180558 0.2676898 0 0.9112988 0.3027633 0 0.909 0.34 0 0.9113727 0.3766458 0 0.9183149 0.4114167 0 0.9295626 0.4440625 0 0.9448519 0.4743334 0 0.9639191 0.5019792 0 0.9865001 0.5267501 0 1.012331 0.5483959 0 1.041148 0.5666668 0 1.072688 0.5813126 0 1.106685 0.5920835 0 1.142877 0.5987293 0 1.181 0.601 0 1.220005 0.5991436 0 1.25837 0.5934816 0 1.296625 0.5838751 0 1.335296 0.5701853 0 1.416 0.53 0 0.6840001 0.6820001 0 0.5860001 0.6820001 0 0.5860001 0 0 0.6840001 0 0 0.06999999 0.6820001 0 0.06999999 0 0 0.168 0 0 0.168 0.295 0 0.3077164 0.2967147 0 0.3418982 0.3017176 0 0.3725938 0.3097969 0 0.3998519 0.3207408 0 0.4237211 0.3343374 0 0.44425 0.350375 0 0.4614872 0.3686418 0 0.4754814 0.388926 0 0.4862812 0.4110156 0 0.4939351 0.4346991 0 0.4984918 0.4597645 0 0.5 0.486 0 0.4985758 0.512544 0 0.4942731 0.5380186 0 0.4870469 0.5621876 0 0.4768519 0.5848149 0 0.463643 0.6056644 0 0.4473751 0.6245 0 0.428003 0.6410857 0 0.4054815 0.6551852 0 0.3797657 0.6665626 0 0.3508102 0.6749815 0 0.3185701 0.6802061 0 0.168 0.5940001 0 0.3039786 0.5929086 0 0.3224954 0.5897686 0 0.3386719 0.5847813 0 0.3526297 0.5781482 0 0.3644902 0.5700706 0 0.374375 0.56075 0 0.3824057 0.5503877 0 0.3887037 0.5391852 0 0.3933907 0.5273438 0 0.396588 0.5150648 0 0.3984172 0.5025498 0 0.399 0.49 0 0.398033 0.4736099 0 0.3951805 0.458463 0 0.3905156 0.4445937 0 0.3841111 0.432037 0 0.3760399 0.4208275 0 0.366375 0.411 0 0.3551892 0.4025891 0 0.3425555 0.3956296 0 0.3285469 0.3901562 0 0.3132361 0.3862037 0 0.2966962 0.3838067 0 0.168 0.383 0</float_array>
          <technique_common>
            <accessor source="#Text-mesh-positions-array" count="239" stride="3">
              <param name="X" type="float"/>
              <param name="Y" type="float"/>
              <param name="Z" type="float"/>
            </accessor>
          </technique_common>
        </source>
        <source id="Text-mesh-normals">
          <float_array id="Text-mesh-normals-array" count="3">0 0 1</float_array>
          <technique_common>
            <accessor source="#Text-mesh-normals-array" count="1" stride="3">
              <param name="X" type="float"/>
              <param name="Y" type="float"/>
              <param name="Z" type="float"/>
            </accessor>
          </technique_common>
        </source>
        <source id="Text-mesh-map-0">
          <float_array id="Text-mesh-map-0-array" count="1386">1 0 0.3333333 0 0.6666667 0 0.2 0 0.8363636 0 0.8545455 0 0.3636364 0 0.6181818 0 0.6363636 0 0.6363636 0 0.6545454 0 0.4181818 0 0.3 0 0.8 0 0 0 0.8571429 0 0.2987013 0 0.3246753 0 0.2474226 0 0.742268 0 0.7525773 0 0.8363636 0 0.8545455 0 0.2181818 0 1 0 0 0 0.3333333 0 0.5636364 0 0.3636364 0 0.3818182 0 0.3818182 0 0.4 0 0.5636364 0 0.4 0 0.4181818 0 0.5636364 0 0.4181818 0 0.4363636 0 0.5636364 0 0.4363636 0 0.4545454 0 0.5636364 0 0.4545454 0 0.4727272 0 0.5636364 0 0.4727272 0 0.4909091 0 0.5636364 0 0 0 0.0181818 0 1 0 0.0181818 0 0.0363636 0 0.0545454 0 0.0545454 0 0.09090906 0 0.9636363 0 0.09090906 0 0.1090909 0 0.9454545 0 0.9636363 0 0.09090906 0 0.9454545 0 0.0181818 0 0.0545454 0 1 0 0.4909091 0 0 0 0.5272727 0 0.5454546 0 0.5636364 0 0.4909091 0 0.5272727 0 0.5454546 0 0.4909091 0 0.1090909 0 0.1272727 0 0.9272727 0 0.1272727 0 0.1454545 0 0.9090909 0 0.1454545 0 0.1636363 0 0.8909091 0 0.1272727 0 0.9090909 0 0.9272727 0 0.1636363 0 0.1818181 0 0.8727273 0 0.1818181 0 0.2 0 0.8545455 0 0.1636363 0 0.8727273 0 0.8909091 0 0.2 0 0.2181818 0 0.8363636 0 0.2181818 0 0.2363636 0 0.8181818 0 0.8181818 0 0.2363636 0 0.8 0 0.2363636 0 0.2545455 0 0.8 0 0.2545455 0 0.2727273 0 0.8 0 0.8 0 0.2727273 0 0.7818182 0 0.2727273 0 0.2909091 0 0.7818182 0 0.2909091 0 0.3090909 0 0.7636364 0 0.7454546 0 0.3090909 0 0.7272728 0 0.3090909 0 0.3272727 0 0.7272728 0 0.3272727 0 0.3454545 0 0.7090909 0 0.7272728 0 0.3272727 0 0.7090909 0 0.3454545 0 0.6545454 0 0.6727273 0 0.3454545 0 0.6727273 0 0.6909091 0 0.3090909 0 0.7454546 0 0.7636364 0 1 0 0.5272727 0 0 0 0.2909091 0 0.7636364 0 0.7818182 0 0.3454545 0 0.6909091 0 0.7090909 0 0.9636363 0 1 0 0.0545454 0 0.9454545 0 0.1090909 0 0.9272727 0 0.9090909 0 0.1454545 0 0.8909091 0 0.2181818 0 0.8181818 0 0.8363636 0 0.8727273 0 0.1818181 0 0.8545455 0 0.6545454 0 0.3454545 0 0.3636364 0 0.3636364 0 0.5636364 0 0.5818182 0 0.3636364 0 0.5818182 0 0.6 0 0.6363636 0 0.6545454 0 0.3636364 0 0.3636364 0 0.6 0 0.6181818 0 0.0545454 0 0.09090906 0 0.9636363 0 0.09090906 0 0.1090909 0 0.9454545 0 0.9636363 0 0.09090906 0 0.9454545 0 0.1090909 0 0.1272727 0 0.9454545 0 0.1272727 0 0.1454545 0 0.9454545 0 0.1454545 0 0.1636363 0 0.9454545 0 0.1636363 0 0.1818181 0 0.9454545 0 0.1818181 0 0.2 0 0.9454545 0 0.2 0 0.2181818 0 0.9454545 0 0.0181818 0 0.0363636 0 0.0545454 0 0.9636363 0 1 0 0.0545454 0 0 0 0.0181818 0 1 0 0.0181818 0 0.0545454 0 1 0 0.4727272 0 0.4909091 0 0.5818182 0 0.4909091 0 0 0 0.5272727 0 0.5818182 0 0.4909091 0 0.5636364 0 0.4363636 0 0.4545454 0 0.6181818 0 0.4545454 0 0.4727272 0 0.6 0 0.6 0 0.4727272 0 0.5818182 0 0.4 0 0.4181818 0 0.6545454 0 0.4181818 0 0.4363636 0 0.6363636 0 0.6363636 0 0.4363636 0 0.6181818 0 0.3636364 0 0.3818182 0 0.6909091 0 0.3818182 0 0.4 0 0.6727273 0 0.3272727 0 0.3454545 0 0.7090909 0 0.3454545 0 0.3636364 0 0.6909091 0 0.3272727 0 0.7090909 0 0.7272728 0 0.2909091 0 0.3090909 0 0.7636364 0 0.3090909 0 0.3272727 0 0.7272728 0 0.7454546 0 0.7636364 0 0.3090909 0 0.7272728 0 0.7454546 0 0.3090909 0 0.4 0 0.6545454 0 0.6727273 0 0 0 1 0 0.5272727 0 0.7090909 0 0.3454545 0 0.6909091 0 0.5272727 0 0.5636364 0 0.4909091 0 0.6727273 0 0.6909091 0 0.3818182 0 0.4545454 0 0.6 0 0.6181818 0 0.3 0 0.4 0 0.5 0 0.5 0 0.6 0 0.8 0 0.6 0 0.7 0 0.8 0 0.8 0 0.9 0 0 0 0.9 0 1 0 0 0 0.1 0 0.2 0 0 0 0.2 0 0.3 0 0 0 0.3 0 0.5 0 0.8 0 0.9350649 0 0.9480519 0 0.1558441 0 0.9480519 0 0.961039 0 0.1168831 0 0.9350649 0 0.1688311 0 0.9220779 0 0.961039 0 0.974026 0 0.1168831 0 0.974026 0 0.987013 0 0.09090906 0 0.1428571 0 0.9480519 0 0.1168831 0 0.987013 0 0 0 0.06493502 0 0 0 0.01298701 0 0.06493502 0 0.1688311 0 0.9350649 0 0.1558441 0 0.9480519 0 0.1428571 0 0.1558441 0 0.9090909 0 0.9220779 0 0.1948052 0 0.1818181 0 0.9220779 0 0.1688311 0 0.8831169 0 0.8961039 0 0.2467532 0 0.8961039 0 0.9090909 0 0.2207792 0 0.8571429 0 0.8701299 0 0.2987013 0 0.8701299 0 0.8831169 0 0.2727273 0 0.8311688 0 0.8441559 0 0.3506494 0 0.8441559 0 0.8571429 0 0.3246753 0 0.8311688 0 0.3506494 0 0.3766233 0 0.8051948 0 0.8181818 0 0.4025974 0 0.8181818 0 0.8311688 0 0.3766233 0 0.4025974 0 0.8181818 0 0.3766233 0 0.7792208 0 0.7922078 0 0.4545454 0 0.7922078 0 0.8051948 0 0.4285714 0 0.4545454 0 0.7922078 0 0.4285714 0 0.7532467 0 0.7662338 0 0.4805195 0 0.7662338 0 0.7792208 0 0.4805195 0 0.4805195 0 0.7792208 0 0.4545454 0 0.7272728 0 0.7402598 0 0.5454546 0 0.7402598 0 0.7532467 0 0.5064935 0 0.7272728 0 0.5454546 0 0.5584416 0 0.7012987 0 0.7142857 0 0.5844156 0 0.7142857 0 0.7272728 0 0.5584416 0 0.7012987 0 0.5844156 0 0.6103896 0 0.6623377 0 0.6753247 0 0.6103896 0 0.6753247 0 0.7012987 0 0.6103896 0 0.8051948 0 0.4025974 0 0.4285714 0 0.8961039 0 0.2207792 0 0.2467532 0 0.9090909 0 0.1948052 0 0.2207792 0 0.9220779 0 0.1818181 0 0.1948052 0 0.987013 0 0.06493502 0 0.09090906 0 0.09090906 0 0.1168831 0 0.974026 0 0.5844156 0 0.7142857 0 0.5584416 0 0.5454546 0 0.7402598 0 0.5324676 0 0.5324676 0 0.7402598 0 0.5064935 0 0.4805195 0 0.5064935 0 0.7532467 0 0.8831169 0 0.2467532 0 0.2727273 0 0.8701299 0 0.2727273 0 0.2987013 0 0.3506494 0 0.8441559 0 0.3246753 0 0.04123711 0 0.08247423 0 0.9175258 0 0.08247423 0 0.1237113 0 0.8969072 0 0.1237113 0 0.1340206 0 0.8659794 0 0.1340206 0 0.1443299 0 0.8556701 0 0.1237113 0 0.8659794 0 0.8762887 0 0.1443299 0 0.1546391 0 0.8453608 0 0.1546391 0 0.1649484 0 0.8350515 0 0.1443299 0 0.8453608 0 0.8556701 0 0.1649484 0 0.1752577 0 0.8247423 0 0.1752577 0 0.185567 0 0.814433 0 0.185567 0 0.1958763 0 0.8041237 0 0.1958763 0 0.2061855 0 0.7938144 0 0.185567 0 0.8041237 0 0.814433 0 0.2061855 0 0.2164948 0 0.7835052 0 0.2164948 0 0.2268041 0 0.7731959 0 0.2061855 0 0.7835052 0 0.7938144 0 0.2268041 0 0.2371134 0 0.7628866 0 0.2371134 0 0.2474226 0 0.7525773 0 0.2268041 0 0.7628866 0 0.7731959 0 0.2474226 0 0.2577319 0 0.742268 0 0.2577319 0 0.2680412 0 0.742268 0 0.742268 0 0.2680412 0 0.7319588 0 0.2680412 0 0.2783505 0 0.7319588 0 0.2783505 0 0.2886598 0 0.7216495 0 0.2886598 0 0.298969 0 0.7113402 0 0.298969 0 0.3092783 0 0.7010309 0 0.3092783 0 0.3195876 0 0.6907216 0 0.3195876 0 0.3298969 0 0.6804124 0 0.6907216 0 0.3195876 0 0.6804124 0 0.3298969 0 0.3402062 0 0.6701031 0 0.3402062 0 0.3505154 0 0.6597938 0 0.3505154 0 0.3608247 0 0.6494845 0 0.3608247 0 0.371134 0 0.6391752 0 0.6391752 0 0.371134 0 0.628866 0 0.371134 0 0.4123711 0 0.6082474 0 0.4123711 0 0.4329897 0 0.5876289 0 0.6082474 0 0.4123711 0 0.5876289 0 0.4329897 0 0.4536082 0 0.5670103 0 0.4536082 0 0.4948453 0 0.5463917 0 0.5670103 0 0.4536082 0 0.5463917 0 0.4948453 0 0.5051546 0 0.5463917 0 0.3402062 0 0.6597938 0 0.6701031 0 0.298969 0 0.7010309 0 0.7113402 0 0.2783505 0 0.7216495 0 0.7319588 0 0.1752577 0 0.814433 0 0.8247423 0 0 0 0.04123711 0 0.9587629 0 0.08247423 0 0.8969072 0 0.9175258 0 0.9587629 0 1 0 0 0 0.9381443 0 0.9587629 0 0.04123711 0 0.8659794 0 0.1340206 0 0.8556701 0 0.8969072 0 0.1237113 0 0.8762887 0 0.7835052 0 0.2164948 0 0.7731959 0 0.3092783 0 0.6907216 0 0.7010309 0 0.3608247 0 0.6391752 0 0.6494845 0 0.5670103 0 0.5876289 0 0.4329897 0 0.9175258 0 0.9381443 0 0.04123711 0 0.371134 0 0.6082474 0 0.628866 0 0.3505154 0 0.6494845 0 0.6597938 0 0.8453608 0 0.1546391 0 0.8350515 0 0.3298969 0 0.6701031 0 0.6804124 0 0.8247423 0 0.8350515 0 0.1649484 0 0.8041237 0 0.1958763 0 0.7938144 0 0.2886598 0 0.7113402 0 0.7216495 0 0.7628866 0 0.2371134 0 0.7525773 0 0.2181818 0 0.2363636 0 0.8181818 0 0.2363636 0 0.2545455 0 0.8 0 0.2545455 0 0.2727273 0 0.8 0 0.2727273 0 0.2909091 0 0.7818182 0 0.8 0 0.2727273 0 0.7818182 0 0.2909091 0 0.7636364 0 0.7818182 0 0.2363636 0 0.8 0 0.8181818 0 0.9272727 0 0.9454545 0 0.2181818 0 0.9090909 0 0.9272727 0 0.2181818 0 0.8909091 0 0.9090909 0 0.2181818 0 0.8727273 0 0.8909091 0 0.2181818 0 0.2181818 0 0.8181818 0 0.8363636 0 0.8545455 0 0.8727273 0 0.2181818 0</float_array>
          <technique_common>
            <accessor source="#Text-mesh-map-0-array" count="693" stride="2">
              <param name="S" type="float"/>
              <param name="T" type="float"/>
            </accessor>
          </technique_common>
        </source>
        <vertices id="Text-mesh-vertices">
          <input semantic="POSITION" source="#Text-mesh-positions"/>
        </vertices>
        <triangles material="Material_002-material" count="231">
          <input semantic="VERTEX" source="#Text-mesh-vertices" offset="0"/>
          <input semantic="NORMAL" source="#Text-mesh-normals" offset="1"/>
          <input semantic="TEXCOORD" source="#Text-mesh-map-0" offset="2" set="0"/>
          <p>186 0 0 184 0 1 185 0 2 10 0 3 44 0 4 45 0 5 19 0 6 32 0 7 33 0 8 219 0 9 220 0 10 209 0 11 108 0 12 113 0 13 105 0 14 94 0 15 66 0 16 67 0 17 131 0 18 164 0 19 165 0 20 230 0 21 231 0 22 198 0 23 186 0 24 183 0 25 184 0 26 29 0 27 19 0 28 20 0 29 20 0 30 21 0 31 29 0 32 21 0 33 22 0 34 29 0 35 22 0 36 23 0 37 29 0 38 23 0 39 24 0 40 29 0 41 24 0 42 25 0 43 29 0 44 25 0 45 26 0 46 29 0 47 0 0 48 1 0 49 52 0 50 1 0 51 2 0 52 3 0 53 3 0 54 4 0 55 51 0 56 4 0 57 5 0 58 50 0 59 51 0 60 4 0 61 50 0 62 1 0 63 3 0 64 52 0 65 26 0 66 0 0 67 27 0 68 28 0 69 29 0 70 26 0 71 27 0 72 28 0 73 26 0 74 5 0 75 6 0 76 49 0 77 6 0 78 7 0 79 48 0 80 7 0 81 8 0 82 47 0 83 6 0 84 48 0 85 49 0 86 8 0 87 9 0 88 46 0 89 9 0 90 10 0 91 45 0 92 8 0 93 46 0 94 47 0 95 10 0 96 11 0 97 44 0 98 11 0 99 12 0 100 43 0 101 43 0 102 12 0 103 42 0 104 12 0 105 13 0 106 42 0 107 13 0 108 14 0 109 42 0 110 42 0 111 14 0 112 41 0 113 14 0 114 15 0 115 41 0 116 15 0 117 16 0 118 40 0 119 39 0 120 16 0 121 38 0 122 16 0 123 17 0 124 38 0 125 17 0 126 18 0 127 37 0 128 38 0 129 17 0 130 37 0 131 18 0 132 34 0 133 35 0 134 18 0 135 35 0 136 36 0 137 16 0 138 39 0 139 40 0 140 52 0 141 27 0 142 0 0 143 15 0 144 40 0 145 41 0 146 18 0 147 36 0 148 37 0 149 51 0 150 52 0 151 3 0 152 50 0 153 5 0 154 49 0 155 48 0 156 7 0 157 47 0 158 11 0 159 43 0 160 44 0 161 46 0 162 9 0 163 45 0 164 34 0 165 18 0 166 19 0 167 19 0 168 29 0 169 30 0 170 19 0 171 30 0 172 31 0 173 33 0 174 34 0 175 19 0 176 19 0 177 31 0 178 32 0 179 190 0 180 191 0 181 237 0 182 191 0 183 192 0 184 236 0 185 237 0 186 191 0 187 236 0 188 192 0 189 193 0 190 236 0 191 193 0 192 194 0 193 236 0 194 194 0 195 195 0 196 236 0 197 195 0 198 196 0 199 236 0 200 196 0 201 197 0 202 236 0 203 197 0 204 198 0 205 236 0 206 188 0 207 189 0 208 190 0 209 237 0 210 238 0 211 190 0 212 187 0 213 188 0 214 238 0 215 188 0 216 190 0 217 238 0 218 212 0 219 213 0 220 216 0 221 213 0 222 187 0 223 214 0 224 216 0 225 213 0 226 215 0 227 210 0 228 211 0 229 218 0 230 211 0 231 212 0 232 217 0 233 217 0 234 212 0 235 216 0 236 208 0 237 209 0 238 220 0 239 209 0 240 210 0 241 219 0 242 219 0 243 210 0 244 218 0 245 206 0 246 207 0 247 222 0 248 207 0 249 208 0 250 221 0 251 204 0 252 205 0 253 223 0 254 205 0 255 206 0 256 222 0 257 204 0 258 223 0 259 224 0 260 202 0 261 203 0 262 226 0 263 203 0 264 204 0 265 224 0 266 225 0 267 226 0 268 203 0 269 224 0 270 225 0 271 203 0 272 208 0 273 220 0 274 221 0 275 187 0 276 238 0 277 214 0 278 223 0 279 205 0 280 222 0 281 214 0 282 215 0 283 213 0 284 221 0 285 222 0 286 207 0 287 211 0 288 217 0 289 218 0 290 108 0 291 109 0 292 110 0 293 110 0 294 111 0 295 113 0 296 111 0 297 112 0 298 113 0 299 113 0 300 114 0 301 105 0 302 114 0 303 115 0 304 105 0 305 106 0 306 107 0 307 105 0 308 107 0 309 108 0 310 105 0 311 108 0 312 110 0 313 113 0 314 100 0 315 101 0 316 59 0 317 101 0 318 102 0 319 57 0 320 100 0 321 60 0 322 99 0 323 102 0 324 103 0 325 57 0 326 103 0 327 104 0 328 56 0 329 58 0 330 101 0 331 57 0 332 104 0 333 53 0 334 55 0 335 53 0 336 54 0 337 55 0 338 60 0 339 100 0 340 59 0 341 101 0 342 58 0 343 59 0 344 98 0 345 99 0 346 62 0 347 61 0 348 99 0 349 60 0 350 96 0 351 97 0 352 64 0 353 97 0 354 98 0 355 63 0 356 94 0 357 95 0 358 66 0 359 95 0 360 96 0 361 65 0 362 92 0 363 93 0 364 68 0 365 93 0 366 94 0 367 67 0 368 92 0 369 68 0 370 69 0 371 90 0 372 91 0 373 70 0 374 91 0 375 92 0 376 69 0 377 70 0 378 91 0 379 69 0 380 88 0 381 89 0 382 72 0 383 89 0 384 90 0 385 71 0 386 72 0 387 89 0 388 71 0 389 86 0 390 87 0 391 73 0 392 87 0 393 88 0 394 73 0 395 73 0 396 88 0 397 72 0 398 84 0 399 85 0 400 76 0 401 85 0 402 86 0 403 74 0 404 84 0 405 76 0 406 77 0 407 82 0 408 83 0 409 78 0 410 83 0 411 84 0 412 77 0 413 82 0 414 78 0 415 79 0 416 80 0 417 81 0 418 79 0 419 81 0 420 82 0 421 79 0 422 90 0 423 70 0 424 71 0 425 97 0 426 63 0 427 64 0 428 98 0 429 62 0 430 63 0 431 99 0 432 61 0 433 62 0 434 104 0 435 55 0 436 56 0 437 56 0 438 57 0 439 103 0 440 78 0 441 83 0 442 77 0 443 76 0 444 85 0 445 75 0 446 75 0 447 85 0 448 74 0 449 73 0 450 74 0 451 86 0 452 96 0 453 64 0 454 65 0 455 95 0 456 65 0 457 66 0 458 68 0 459 93 0 460 67 0 461 117 0 462 118 0 463 179 0 464 118 0 465 119 0 466 178 0 467 119 0 468 120 0 469 176 0 470 120 0 471 121 0 472 175 0 473 119 0 474 176 0 475 177 0 476 121 0 477 122 0 478 174 0 479 122 0 480 123 0 481 173 0 482 121 0 483 174 0 484 175 0 485 123 0 486 124 0 487 172 0 488 124 0 489 125 0 490 171 0 491 125 0 492 126 0 493 170 0 494 126 0 495 127 0 496 169 0 497 125 0 498 170 0 499 171 0 500 127 0 501 128 0 502 168 0 503 128 0 504 129 0 505 167 0 506 127 0 507 168 0 508 169 0 509 129 0 510 130 0 511 166 0 512 130 0 513 131 0 514 165 0 515 129 0 516 166 0 517 167 0 518 131 0 519 132 0 520 164 0 521 132 0 522 133 0 523 164 0 524 164 0 525 133 0 526 163 0 527 133 0 528 134 0 529 163 0 530 134 0 531 135 0 532 162 0 533 135 0 534 136 0 535 161 0 536 136 0 537 137 0 538 160 0 539 137 0 540 138 0 541 159 0 542 138 0 543 139 0 544 158 0 545 159 0 546 138 0 547 158 0 548 139 0 549 140 0 550 157 0 551 140 0 552 141 0 553 156 0 554 141 0 555 142 0 556 155 0 557 142 0 558 143 0 559 154 0 560 154 0 561 143 0 562 153 0 563 143 0 564 144 0 565 152 0 566 144 0 567 145 0 568 151 0 569 152 0 570 144 0 571 151 0 572 145 0 573 146 0 574 150 0 575 146 0 576 147 0 577 149 0 578 150 0 579 146 0 580 149 0 581 147 0 582 148 0 583 149 0 584 140 0 585 156 0 586 157 0 587 136 0 588 160 0 589 161 0 590 134 0 591 162 0 592 163 0 593 124 0 594 171 0 595 172 0 596 116 0 597 117 0 598 181 0 599 118 0 600 178 0 601 179 0 602 181 0 603 182 0 604 116 0 605 180 0 606 181 0 607 117 0 608 176 0 609 120 0 610 175 0 611 178 0 612 119 0 613 177 0 614 168 0 615 128 0 616 167 0 617 137 0 618 159 0 619 160 0 620 142 0 621 154 0 622 155 0 623 150 0 624 151 0 625 145 0 626 179 0 627 180 0 628 117 0 629 143 0 630 152 0 631 153 0 632 141 0 633 155 0 634 156 0 635 174 0 636 122 0 637 173 0 638 139 0 639 157 0 640 158 0 641 172 0 642 173 0 643 123 0 644 170 0 645 126 0 646 169 0 647 135 0 648 161 0 649 162 0 650 166 0 651 130 0 652 165 0 653 198 0 654 199 0 655 229 0 656 199 0 657 200 0 658 228 0 659 200 0 660 201 0 661 228 0 662 201 0 663 202 0 664 227 0 665 228 0 666 201 0 667 227 0 668 202 0 669 226 0 670 227 0 671 199 0 672 228 0 673 229 0 674 235 0 675 236 0 676 198 0 677 234 0 678 235 0 679 198 0 680 233 0 681 234 0 682 198 0 683 232 0 684 233 0 685 198 0 686 198 0 687 229 0 688 230 0 689 231 0 690 232 0 691 198 0 692</p>
        </triangles>
      </mesh>
    </geometry>
    <geometry id="Cube_001-mesh" name="Cube.001">
      <mesh>
        <source id="Cube_001-mesh-positions">
          <float_array id="Cube_001-mesh-positions-array" count="24">-0.223456 -0.04633694 0 -0.223456 -0.04633694 0 -0.223456 0.04633694 0 -0.223456 0.04633694 0 0.223456 -0.04633694 0 0.223456 -0.04633694 0 0.223456 0.04633694 0 0.223456 0.04633694 0</float_array>
          <technique_common>
            <accessor source="#Cube_001-mesh-positions-array" count="8" stride="3">
              <param name="X" type="float"/>
              <param name="Y" type="float"/>
              <param name="Z" type="float"/>
            </accessor>
          </technique_common>
        </source>
        <source id="Cube_001-mesh-normals">
          <float_array id="Cube_001-mesh-normals-array" count="6">0 0 1 0 0 -1</float_array>
          <technique_common>
            <accessor source="#Cube_001-mesh-normals-array" count="2" stride="3">
              <param name="X" type="float"/>
              <param name="Y" type="float"/>
              <param name="Z" type="float"/>
            </accessor>
          </technique_common>
        </source>
        <source id="Cube_001-mesh-map-0">
          <float_array id="Cube_001-mesh-map-0-array" count="72">0.625 0 0.375 0.25 0.375 0 0.625 0.25 0.375 0.5 0.375 0.25 0.625 0.5 0.375 0.75 0.375 0.5 0.625 0.75 0.375 1 0.375 0.75 0.375 0.5 0.125 0.75 0.125 0.5 0.875 0.5 0.625 0.75 0.625 0.5 0.625 0 0.625 0.25 0.375 0.25 0.625 0.25 0.625 0.5 0.375 0.5 0.625 0.5 0.625 0.75 0.375 0.75 0.625 0.75 0.625 1 0.375 1 0.375 0.5 0.375 0.75 0.125 0.75 0.875 0.5 0.875 0.75 0.625 0.75</float_array>
          <technique_common>
            <accessor source="#Cube_001-mesh-map-0-array" count="36" stride="2">
              <param name="S" type="float"/>
              <param name="T" type="float"/>
            </accessor>
          </technique_common>
        </source>
        <vertices id="Cube_001-mesh-vertices">
          <input semantic="POSITION" source="#Cube_001-mesh-positions"/>
        </vertices>
        <triangles material="Material_001-material" count="12">
          <input semantic="VERTEX" source="#Cube_001-mesh-vertices" offset="0"/>
          <input semantic="NORMAL" source="#Cube_001-mesh-normals" offset="1"/>
          <input semantic="TEXCOORD" source="#Cube_001-mesh-map-0" offset="2" set="0"/>
          <p>1 0 0 2 0 1 0 0 2 3 0 3 6 0 4 2 0 5 7 0 6 4 0 7 6 0 8 5 0 9 0 0 10 4 0 11 6 1 12 0 1 13 2 1 14 3 0 15 5 0 16 7 0 17 1 0 18 3 0 19 2 0 20 3 0 21 7 0 22 6 0 23 7 0 24 5 0 25 4 0 26 5 0 27 1 0 28 0 0 29 6 1 30 4 1 31 0 1 32 3 0 33 1 0 34 5 0 35</p>
        </triangles>
      </mesh>
    </geometry>
    <geometry id="Cylinder-mesh" name="Cylinder">
      <mesh>
        <source id="Cylinder-mesh-positions">
          <float_array id="Cylinder-mesh-positions-array" count="192">0 0.01627814 -0.4245374 0 0.01627814 0.4245374 0.002918541 0.01596534 -0.4245374 0.002918541 0.01596534 0.4245374 0.005724966 0.01503902 -0.4245374 0.005724966 0.01503902 0.4245374 0.00831139 0.01353478 -0.4245374 0.00831139 0.01353478 0.4245374 0.01057839 0.01151037 -0.4245374 0.01057839 0.01151037 0.4245374 0.01243889 0.009043633 -0.4245374 0.01243889 0.009043633 0.4245374 0.01382136 0.006229341 -0.4245374 0.01382136 0.006229341 0.4245374 0.01467269 0.003175675 -0.4245374 0.01467269 0.003175675 0.4245374 0.01496016 0 -0.4245374 0.01496016 0 0.4245374 0.01467269 -0.003175675 -0.4245374 0.01467269 -0.003175675 0.4245374 0.01382136 -0.006229341 -0.4245374 0.01382136 -0.006229341 0.4245374 0.01243889 -0.009043633 -0.4245374 0.01243889 -0.009043633 0.4245374 0.01057839 -0.01151037 -0.4245374 0.01057839 -0.01151037 0.4245374 0.00831139 -0.01353478 -0.4245374 0.00831139 -0.01353478 0.4245374 0.005724966 -0.01503902 -0.4245374 0.005724966 -0.01503902 0.4245374 0.002918541 -0.01596534 -0.4245374 0.002918541 -0.01596534 0.4245374 0 -0.01627814 -0.4245374 0 -0.01627814 0.4245374 -0.002918541 -0.01596534 -0.4245374 -0.002918541 -0.01596534 0.4245374 -0.005724966 -0.01503902 -0.4245374 -0.005724966 -0.01503902 0.4245374 -0.00831139 -0.01353478 -0.4245374 -0.00831139 -0.01353478 0.4245374 -0.01057839 -0.01151037 -0.4245374 -0.01057839 -0.01151037 0.4245374 -0.01243889 -0.009043633 -0.4245374 -0.01243889 -0.009043633 0.4245374 -0.01382136 -0.006229341 -0.4245374 -0.01382136 -0.006229341 0.4245374 -0.01467269 -0.003175675 -0.4245374 -0.01467269 -0.003175675 0.4245374 -0.01496016 0 -0.4245374 -0.01496016 0 0.4245374 -0.01467269 0.003175675 -0.4245374 -0.01467269 0.003175675 0.4245374 -0.01382136 0.006229341 -0.4245374 -0.01382136 0.006229341 0.4245374 -0.01243889 0.009043633 -0.4245374 -0.01243889 0.009043633 0.4245374 -0.01057839 0.01151037 -0.4245374 -0.01057839 0.01151037 0.4245374 -0.00831139 0.01353478 -0.4245374 -0.00831139 0.01353478 0.4245374 -0.005724966 0.01503902 -0.4245374 -0.005724966 0.01503902 0.4245374 -0.002918541 0.01596534 -0.4245374 -0.002918541 0.01596534 0.4245374</float_array>
          <technique_common>
            <accessor source="#Cylinder-mesh-positions-array" count="64" stride="3">
              <param name="X" type="float"/>
              <param name="Y" type="float"/>
              <param name="Z" type="float"/>
            </accessor>
          </technique_common>
        </source>
        <source id="Cylinder-mesh-normals">
          <float_array id="Cylinder-mesh-normals-array" count="168">0.1065586 0.9943065 0 0.3134388 0.9496085 0 0.5027538 0.8644297 0 0.6660676 0.7458915 0 0.7983762 0.6021591 0 0.8975526 0.4409075 0 0.9632673 0.2685445 0 0.9959284 0.09014844 0 0.9959284 -0.09014844 0 0.9632671 -0.2685452 0 0.8975524 -0.4409081 0 0.7983759 -0.6021596 0 0.666067 -0.7458919 0 0.5027537 -0.8644298 0 0.3134388 -0.9496085 0 0.1065586 -0.9943065 0 -0.1065586 -0.9943065 0 -0.3134388 -0.9496085 0 -0.5027538 -0.8644297 0 -0.6660676 -0.7458915 0 -0.7983762 -0.6021591 0 -0.8975526 -0.4409075 0 -0.9632673 -0.2685445 0 -0.9959284 -0.09014844 0 -0.9959284 0.09014844 0 -0.9632671 0.2685452 0 -0.8975524 0.4409081 0 -0.7983759 0.6021596 0 -0.666067 0.7458919 0 -0.5027537 0.8644298 0 0 0 1 -0.3134388 0.9496085 0 -0.1065586 0.9943065 0 0 0 -1 0.5027537 0.8644298 0 0.666067 0.7458919 0 0.7983759 0.6021596 0 0.8975524 0.4409081 0 0.9632671 0.2685452 0 0.9632673 -0.2685445 0 0.8975526 -0.4409075 0 0.7983762 -0.6021591 0 0.6660676 -0.7458915 0 0.5027538 -0.8644297 0 -0.5027537 -0.8644298 0 -0.666067 -0.7458919 0 -0.7983759 -0.6021596 0 -0.8975524 -0.4409081 0 -0.9632671 -0.2685452 0 -0.9632673 0.2685445 0 -0.8975526 0.4409075 0 -0.7983762 0.6021591 0 -0.6660676 0.7458915 0 -0.5027538 0.8644297 0 -1.59408e-5 0 1 1.59408e-5 0 1</float_array>
          <technique_common>
            <accessor source="#Cylinder-mesh-normals-array" count="56" stride="3">
              <param name="X" type="float"/>
              <param name="Y" type="float"/>
              <param name="Z" type="float"/>
            </accessor>
          </technique_common>
        </source>
        <source id="Cylinder-mesh-map-0">
          <float_array id="Cylinder-mesh-map-0-array" count="744">1 1 0.96875 0.5 1 0.5 0.96875 1 0.9375 0.5 0.96875 0.5 0.9375 1 0.90625 0.5 0.9375 0.5 0.90625 1 0.875 0.5 0.90625 0.5 0.875 1 0.84375 0.5 0.875 0.5 0.84375 1 0.8125 0.5 0.84375 0.5 0.8125 1 0.78125 0.5 0.8125 0.5 0.78125 1 0.75 0.5 0.78125 0.5 0.75 1 0.71875 0.5 0.75 0.5 0.71875 1 0.6875 0.5 0.71875 0.5 0.6875 1 0.65625 0.5 0.6875 0.5 0.65625 1 0.625 0.5 0.65625 0.5 0.625 1 0.59375 0.5 0.625 0.5 0.59375 1 0.5625 0.5 0.59375 0.5 0.5625 1 0.53125 0.5 0.5625 0.5 0.53125 1 0.5 0.5 0.53125 0.5 0.5 1 0.46875 0.5 0.5 0.5 0.46875 1 0.4375 0.5 0.46875 0.5 0.4375 1 0.40625 0.5 0.4375 0.5 0.40625 1 0.375 0.5 0.40625 0.5 0.375 1 0.34375 0.5 0.375 0.5 0.34375 1 0.3125 0.5 0.34375 0.5 0.3125 1 0.28125 0.5 0.3125 0.5 0.28125 1 0.25 0.5 0.28125 0.5 0.25 1 0.21875 0.5 0.25 0.5 0.21875 1 0.1875 0.5 0.21875 0.5 0.1875 1 0.15625 0.5 0.1875 0.5 0.15625 1 0.125 0.5 0.15625 0.5 0.125 1 0.09375 0.5 0.125 0.5 0.09375 1 0.0625 0.5 0.09375 0.5 0.4197056 0.4197056 0.3833369 0.4495527 0.08029437 0.4197056 0.0625 1 0.03125 0.5 0.0625 0.5 0.03125 1 0 0.5 0.03125 0.5 0.6166632 0.4495527 0.658156 0.4717311 0.8833369 0.4495527 1 1 0.96875 1 0.96875 0.5 0.96875 1 0.9375 1 0.9375 0.5 0.9375 1 0.90625 1 0.90625 0.5 0.90625 1 0.875 1 0.875 0.5 0.875 1 0.84375 1 0.84375 0.5 0.84375 1 0.8125 1 0.8125 0.5 0.8125 1 0.78125 1 0.78125 0.5 0.78125 1 0.75 1 0.75 0.5 0.75 1 0.71875 1 0.71875 0.5 0.71875 1 0.6875 1 0.6875 0.5 0.6875 1 0.65625 1 0.65625 0.5 0.65625 1 0.625 1 0.625 0.5 0.625 1 0.59375 1 0.59375 0.5 0.59375 1 0.5625 1 0.5625 0.5 0.5625 1 0.53125 1 0.53125 0.5 0.53125 1 0.5 1 0.5 0.5 0.5 1 0.46875 1 0.46875 0.5 0.46875 1 0.4375 1 0.4375 0.5 0.4375 1 0.40625 1 0.40625 0.5 0.40625 1 0.375 1 0.375 0.5 0.375 1 0.34375 1 0.34375 0.5 0.34375 1 0.3125 1 0.3125 0.5 0.3125 1 0.28125 1 0.28125 0.5 0.28125 1 0.25 1 0.25 0.5 0.25 1 0.21875 1 0.21875 0.5 0.21875 1 0.1875 1 0.1875 0.5 0.1875 1 0.15625 1 0.15625 0.5 0.15625 1 0.125 1 0.125 0.5 0.125 1 0.09375 1 0.09375 0.5 0.09375 1 0.0625 1 0.0625 0.5 0.341844 0.4717311 0.2968217 0.4853885 0.25 0.49 0.25 0.49 0.2031783 0.4853885 0.341844 0.4717311 0.2031783 0.4853885 0.1581559 0.4717311 0.341844 0.4717311 0.1581559 0.4717311 0.1166631 0.4495527 0.341844 0.4717311 0.1166631 0.4495527 0.08029437 0.4197056 0.3833369 0.4495527 0.341844 0.4717311 0.1166631 0.4495527 0.3833369 0.4495527 0.08029437 0.4197056 0.05044728 0.3833369 0.4197056 0.4197056 0.05044728 0.3833369 0.02826887 0.341844 0.4495527 0.3833369 0.4197056 0.4197056 0.05044728 0.3833369 0.4495527 0.3833369 0.02826887 0.341844 0.01461148 0.2968217 0.4853885 0.2968217 0.01461148 0.2968217 0.00999999 0.25 0.49 0.25 0.00999999 0.25 0.01461148 0.2031783 0.4853885 0.2031783 0.01461148 0.2031783 0.02826887 0.1581559 0.4717311 0.1581559 0.02826887 0.1581559 0.05044728 0.1166631 0.4717311 0.1581559 0.05044728 0.1166631 0.08029437 0.08029437 0.4495527 0.1166631 0.4717311 0.1581559 0.05044728 0.1166631 0.4495527 0.1166631 0.08029437 0.08029437 0.1166631 0.05044728 0.4197056 0.08029437 0.1166631 0.05044728 0.1581559 0.02826887 0.3833369 0.05044728 0.4197056 0.08029437 0.1166631 0.05044728 0.3833369 0.05044728 0.1581559 0.02826887 0.2031783 0.01461148 0.25 0.00999999 0.25 0.00999999 0.2968217 0.01461148 0.1581559 0.02826887 0.2968217 0.01461148 0.341844 0.02826887 0.1581559 0.02826887 0.341844 0.02826887 0.3833369 0.05044728 0.1581559 0.02826887 0.4197056 0.08029437 0.4495527 0.1166631 0.08029437 0.08029437 0.4717311 0.1581559 0.4853885 0.2031783 0.01461148 0.2031783 0.4853885 0.2031783 0.49 0.25 0.00999999 0.25 0.49 0.25 0.4853885 0.2968217 0.01461148 0.2968217 0.4853885 0.2968217 0.4717311 0.341844 0.02826887 0.341844 0.4717311 0.341844 0.4495527 0.3833369 0.02826887 0.341844 0.0625 1 0.03125 1 0.03125 0.5 0.03125 1 0 1 0 0.5 0.7031784 0.4853885 0.75 0.49 0.7968217 0.4853885 0.7968217 0.4853885 0.841844 0.4717311 0.7031784 0.4853885 0.841844 0.4717311 0.8833369 0.4495527 0.658156 0.4717311 0.7031784 0.4853885 0.841844 0.4717311 0.658156 0.4717311 0.8833369 0.4495527 0.9197056 0.4197056 0.5802944 0.4197056 0.9197056 0.4197056 0.9495527 0.3833369 0.5504473 0.3833369 0.9495527 0.3833369 0.9717311 0.341844 0.5504473 0.3833369 0.9717311 0.341844 0.9853885 0.2968217 0.5282689 0.341844 0.5504473 0.3833369 0.9717311 0.341844 0.5282689 0.341844 0.9853885 0.2968217 0.99 0.25 0.51 0.25 0.99 0.25 0.9853885 0.2031783 0.5146116 0.2031783 0.9853885 0.2031783 0.9717311 0.1581559 0.5146116 0.2031783 0.9717311 0.1581559 0.9495527 0.1166631 0.5282689 0.1581559 0.5146116 0.2031783 0.9717311 0.1581559 0.5282689 0.1581559 0.9495527 0.1166631 0.9197056 0.08029437 0.5802944 0.08029437 0.9197056 0.08029437 0.8833369 0.05044728 0.6166632 0.05044728 0.8833369 0.05044728 0.841844 0.02826887 0.6166632 0.05044728 0.841844 0.02826887 0.7968217 0.01461148 0.658156 0.02826887 0.6166632 0.05044728 0.841844 0.02826887 0.658156 0.02826887 0.7968217 0.01461148 0.75 0.00999999 0.7031784 0.01461148 0.7031784 0.01461148 0.658156 0.02826887 0.7968217 0.01461148 0.6166632 0.05044728 0.5802944 0.08029437 0.9197056 0.08029437 0.5802944 0.08029437 0.5504473 0.1166631 0.9495527 0.1166631 0.5504473 0.1166631 0.5282689 0.1581559 0.9495527 0.1166631 0.5146116 0.2031783 0.51 0.25 0.99 0.25 0.51 0.25 0.5146116 0.2968217 0.9853885 0.2968217 0.5146116 0.2968217 0.5282689 0.341844 0.9853885 0.2968217 0.5504473 0.3833369 0.5802944 0.4197056 0.9197056 0.4197056 0.5802944 0.4197056 0.6166632 0.4495527 0.8833369 0.4495527</float_array>
          <technique_common>
            <accessor source="#Cylinder-mesh-map-0-array" count="372" stride="2">
              <param name="S" type="float"/>
              <param name="T" type="float"/>
            </accessor>
          </technique_common>
        </source>
        <vertices id="Cylinder-mesh-vertices">
          <input semantic="POSITION" source="#Cylinder-mesh-positions"/>
        </vertices>
        <triangles count="124">
          <input semantic="VERTEX" source="#Cylinder-mesh-vertices" offset="0"/>
          <input semantic="NORMAL" source="#Cylinder-mesh-normals" offset="1"/>
          <input semantic="TEXCOORD" source="#Cylinder-mesh-map-0" offset="2" set="0"/>
          <p>1 0 0 2 0 1 0 0 2 3 1 3 4 1 4 2 1 5 5 2 6 6 2 7 4 2 8 7 3 9 8 3 10 6 3 11 9 4 12 10 4 13 8 4 14 11 5 15 12 5 16 10 5 17 13 6 18 14 6 19 12 6 20 15 7 21 16 7 22 14 7 23 17 8 24 18 8 25 16 8 26 19 9 27 20 9 28 18 9 29 21 10 30 22 10 31 20 10 32 23 11 33 24 11 34 22 11 35 25 12 36 26 12 37 24 12 38 27 13 39 28 13 40 26 13 41 29 14 42 30 14 43 28 14 44 31 15 45 32 15 46 30 15 47 33 16 48 34 16 49 32 16 50 35 17 51 36 17 52 34 17 53 37 18 54 38 18 55 36 18 56 39 19 57 40 19 58 38 19 59 41 20 60 42 20 61 40 20 62 43 21 63 44 21 64 42 21 65 45 22 66 46 22 67 44 22 68 47 23 69 48 23 70 46 23 71 49 24 72 50 24 73 48 24 74 51 25 75 52 25 76 50 25 77 53 26 78 54 26 79 52 26 80 55 27 81 56 27 82 54 27 83 57 28 84 58 28 85 56 28 86 59 29 87 60 29 88 58 29 89 9 30 90 7 30 91 57 30 92 61 31 93 62 31 94 60 31 95 63 32 96 0 32 97 62 32 98 58 33 99 60 33 100 6 33 101 1 0 102 3 0 103 2 0 104 3 1 105 5 1 106 4 1 107 5 34 108 7 34 109 6 34 110 7 35 111 9 35 112 8 35 113 9 36 114 11 36 115 10 36 116 11 37 117 13 37 118 12 37 119 13 38 120 15 38 121 14 38 122 15 7 123 17 7 124 16 7 125 17 8 126 19 8 127 18 8 128 19 39 129 21 39 130 20 39 131 21 40 132 23 40 133 22 40 134 23 41 135 25 41 136 24 41 137 25 42 138 27 42 139 26 42 140 27 43 141 29 43 142 28 43 143 29 14 144 31 14 145 30 14 146 31 15 147 33 15 148 32 15 149 33 16 150 35 16 151 34 16 152 35 17 153 37 17 154 36 17 155 37 44 156 39 44 157 38 44 158 39 45 159 41 45 160 40 45 161 41 46 162 43 46 163 42 46 164 43 47 165 45 47 166 44 47 167 45 48 168 47 48 169 46 48 170 47 23 171 49 23 172 48 23 173 49 24 174 51 24 175 50 24 176 51 49 177 53 49 178 52 49 179 53 50 180 55 50 181 54 50 182 55 51 183 57 51 184 56 51 185 57 52 186 59 52 187 58 52 188 59 53 189 61 53 190 60 53 191 5 54 192 3 54 193 1 54 194 1 30 195 63 30 196 5 30 197 63 30 198 61 30 199 5 30 200 61 30 201 59 30 202 5 30 203 59 30 204 57 30 205 7 30 206 5 30 207 59 30 208 7 30 209 57 30 210 55 30 211 9 30 212 55 30 213 53 30 214 11 30 215 9 30 216 55 30 217 11 30 218 53 30 219 51 30 220 15 30 221 51 30 222 49 30 223 17 30 224 49 30 225 47 30 226 19 30 227 47 30 228 45 30 229 21 30 230 45 30 231 43 30 232 21 30 233 43 30 234 41 30 235 23 30 236 21 30 237 43 30 238 23 30 239 41 30 240 39 30 241 25 30 242 39 30 243 37 30 244 27 30 245 25 30 246 39 30 247 27 30 248 37 55 249 35 55 250 33 55 251 33 30 252 31 30 253 37 30 254 31 30 255 29 30 256 37 30 257 29 30 258 27 30 259 37 30 260 25 30 261 23 30 262 41 30 263 21 30 264 19 30 265 47 30 266 19 30 267 17 30 268 49 30 269 17 30 270 15 30 271 51 30 272 15 30 273 13 30 274 53 30 275 13 30 276 11 30 277 53 30 278 61 31 279 63 31 280 62 31 281 63 32 282 1 32 283 0 32 284 62 33 285 0 33 286 2 33 287 2 33 288 4 33 289 62 33 290 4 33 291 6 33 292 60 33 293 62 33 294 4 33 295 60 33 296 6 33 297 8 33 298 56 33 299 8 33 300 10 33 301 54 33 302 10 33 303 12 33 304 54 33 305 12 33 306 14 33 307 52 33 308 54 33 309 12 33 310 52 33 311 14 33 312 16 33 313 48 33 314 16 33 315 18 33 316 46 33 317 18 33 318 20 33 319 46 33 320 20 33 321 22 33 322 44 33 323 46 33 324 20 33 325 44 33 326 22 33 327 24 33 328 40 33 329 24 33 330 26 33 331 38 33 332 26 33 333 28 33 334 38 33 335 28 33 336 30 33 337 36 33 338 38 33 339 28 33 340 36 33 341 30 33 342 32 33 343 34 33 344 34 33 345 36 33 346 30 33 347 38 33 348 40 33 349 24 33 350 40 33 351 42 33 352 22 33 353 42 33 354 44 33 355 22 33 356 46 33 357 48 33 358 16 33 359 48 33 360 50 33 361 14 33 362 50 33 363 52 33 364 14 33 365 54 33 366 56 33 367 8 33 368 56 33 369 58 33 370 6 33 371</p>
        </triangles>
      </mesh>
    </geometry>
  </library_geometries>
  <library_visual_scenes>
    <visual_scene id="Scene" name="Scene">
      <node id="Text" name="Text" type="NODE">
        <matrix sid="transform">0.02205099 3.36145e-9 0.576757 0.03066088 0.07690094 -9.6388e-10 -0.1653824 0.07268662 0 0.08 -2.62268e-8 0.7702658 0 0 0 1</matrix>
        <instance_geometry url="#Text-mesh" name="Text">
          <bind_material>
            <technique_common>
              <instance_material symbol="Material_002-material" target="#Material_002-material">
                <bind_vertex_input semantic="UVMap" input_semantic="TEXCOORD" input_set="0"/>
              </instance_material>
            </technique_common>
          </bind_material>
        </instance_geometry>
      </node>
      <node id="Cube" name="Cube" type="NODE">
        <matrix sid="transform">0.268545 4.21057e-8 0.9632671 0.05765907 0.9632671 -1.17385e-8 -0.268545 0.1952195 0 1 -4.37114e-8 0.7950181 0 0 0 1</matrix>
        <instance_geometry url="#Cube_001-mesh" name="Cube">
          <bind_material>
            <technique_common>
              <instance_material symbol="Material_001-material" target="#Material_001-material">
                <bind_vertex_input semantic="UVMap" input_semantic="TEXCOORD" input_set="0"/>
              </instance_material>
            </technique_common>
          </bind_material>
        </instance_geometry>
      </node>
      <node id="Cylinder" name="Cylinder" type="NODE">
        <matrix sid="transform">1 0 0 -0.005850613 0 1 0 -0.01903825 0 0 1 0.4245375 0 0 0 1</matrix>
        <instance_geometry url="#Cylinder-mesh" name="Cylinder"/>
      </node>
      <node id="Camera" name="Camera" type="NODE">
        <matrix sid="transform">0.6859207 -0.3240135 0.6515582 7.358891 0.7276763 0.3054208 -0.6141704 -6.925791 0 0.8953956 0.4452714 4.958309 0 0 0 1</matrix>
        <instance_camera url="#Camera-camera"/>
      </node>
      <node id="Light" name="Light" type="NODE">
        <matrix sid="transform">-0.2908646 -0.7711008 0.5663932 4.076245 0.9551712 -0.1998834 0.2183912 1.005454 -0.05518906 0.6045247 0.7946723 5.903862 0 0 0 1</matrix>
        <instance_light url="#Light-light"/>
      </node>
    </visual_scene>
  </library_visual_scenes>
  <scene>
    <instance_visual_scene url="#Scene"/>
  </scene>
</COLLADA>