<?xml version="1.0" encoding="utf-8"?>
<COLLADA xmlns="http://www.collada.org/2005/11/COLLADASchema" version="1.4.1" xmlns:xsi="http://www.w3.org/2001/XMLSchema-instance">
  <asset>
    <contributor>
      <author>Blender User</author>
      <authoring_tool>Blender 3.6.23 commit date:2025-06-16, commit time:11:52, hash:e467db79ca8c</authoring_tool>
    </contributor>
    <created>2026-06-11T22:21:52</created>
    <modified>2026-06-11T22:21:52</modified>
    <unit name="meter" meter="1"/>
    <up_axis>Z_UP</up_axis>
  </asset>
  <library_cameras>
    <camera id="Camera-camera" name="Camera">
      <optics>
        <technique_common>
          <perspective>
            <xfov sid="xfov">39.59775</xfov>
            <aspect_ratio>1.777778</aspect_ratio>
            <znear sid="znear">0.1</znear>
            <zfar sid="zfar">100</zfar>
          </perspective>
        </technique_common>
      </optics>
      <extra>
        <technique profile="blender">
          <shiftx sid="shiftx" type="float">0</shiftx>
          <shifty sid="shifty" type="float">0</shifty>
          <dof_distance sid="dof_distance" type="float">10</dof_distance>
        </technique>
      </extra>
    </camera>
  </library_cameras>
  <library_lights>
    <light id="Light-light" name="Light">
      <technique_common>
        <point>
          <color sid="color">1000 1000 1000</color>
          <constant_attenuation>1</constant_attenuation>
          <linear_attenuation>0</linear_attenuation>
          <quadratic_attenuation>0.00111109</quadratic_attenuation>
        </point>
      </technique_common>
      <extra>
        <technique profile="blender">
          <type sid="type" type="int">0</type>
          <flag sid="flag" type="int">0</flag>
          <mode sid="mode" type="int">1</mode>
          <gamma sid="blender_gamma" type="float">1</gamma>
          <red sid="red" type="float">1</red>
          <green sid="green" type="float">1</green>
          <blue sid="blue" type="float">1</blue>
          <shadow_r sid="blender_shadow_r" type="float">0</shadow_r>
          <shadow_g sid="blender_shadow_g" type="float">0</shadow_g>
          <shadow_b sid="blender_shadow_b" type="float">0</shadow_b>
          <energy sid="blender_energy" type="float">1000</energy>
          <dist sid="blender_dist" type="float">29.99998</dist>
          <spotsize sid="spotsize" type="float">75</spotsize>
          <spotblend sid="spotblend" type="float">0.15</spotblend>
          <att1 sid="att1" type="float">0</att1>
          <att2 sid="att2" type="float">1</att2>
          <falloff_type sid="falloff_type" type="int">2</falloff_type>
          <clipsta sid="clipsta" type="float">0.04999995</clipsta>
          <clipend sid="clipend" type="float">30.002</clipend>
          <bias sid="bias" type="float">1</bias>
          <bufsize sid="bufsize" type="int">2880</bufsize>
          <samp sid="samp" type="int">3</samp>
          <buffers sid="buffers" type="int">1</buffers>
          <radius sid="radius" type="float">0.1</radius>
          <area_shape sid="area_shape" type="int">1</area_shape>
          <area_size sid="area_size" type="float">0.1</area_size>
          <area_sizey sid="area_sizey" type="float">0.1</area_sizey>
          <area_sizez sid="area_sizez" type="float">1</area_sizez>
        </technique>
      </extra>
    </light>
  </library_lights>
  <library_effects>
    <effect id="Material_003-effect">
      <profile_COMMON>
        <technique sid="common">
          <lambert>
            <emission>
              <color sid="emission">0 0 0 1</color>
            </emission>
            <diffuse>
              <color sid="diffuse">0 0 0 1</color>
            </diffuse>
            <reflectivity>
              <float sid="specular">0.5</float>
            </reflectivity>
          </lambert>
        </technique>
      </profile_COMMON>
    </effect>
    <effect id="Material_001-effect">
      <profile_COMMON>
        <technique sid="common">
          <lambert>
            <emission>
              <color sid="emission">0 0 0 1</color>
            </emission>
            <diffuse>
              <color sid="diffuse">0.598397 0.4829958 0 1</color>
            </diffuse>
            <reflectivity>
              <float sid="specular">0.5</float>
            </reflectivity>
          </lambert>
        </technique>
      </profile_COMMON>
    </effect>
  </library_effects>
  <library_images/>
  <library_materials>
    <material id="Material_003-material" name="Material.003">
      <instance_effect url="#Material_003-effect"/>
    </material>
    <material id="Material_001-material" name="Material.001">
      <instance_effect url="#Material_001-effect"/>
    </material>
  </library_materials>
  <library_geometries>
    <geometry id="Text_001-mesh" name="Text.001">
      <mesh>
        <source id="Text_001-mesh-positions">
          <float_array id="Text_001-mesh-positions-array" count="1053">4.358 0.6820001 0 3.971 0.6820001 0 3.971 0 0 4.367 0 0 4.367 0.08799999 0 4.069 0.08799999 0 4.069 0.3 0 4.348 0.3 0 4.348 0.388 0 4.069 0.388 0 4.069 0.5940001 0 4.358 0.5940001 0 3.829 0.336 0 3.6 0.336 0 3.6 0.248 0 3.731 0.248 0 3.731 0.108 0 3.634481 0.08466666 0 3.583 0.08099997 0 3.543538 0.08319324 0 3.506306 0.08962959 0 3.471531 0.1000937 0 3.439445 0.1143704 0 3.410274 0.1322442 0 3.38425 0.1535 0 3.361601 0.1779224 0 3.342556 0.2052963 0 3.327344 0.2354062 0 3.316195 0.268037 0 3.309337 0.3029733 0 3.307 0.34 0 3.309349 0.3762257 0 3.316204 0.4107223 0 3.327281 0.4432188 0 3.342297 0.4734445 0 3.360965 0.5011286 0 3.383 0.5260001 0 3.40812 0.5477883 0 3.436038 0.5662223 0 3.466469 0.5810313 0 3.49913 0.5919445 0 3.533735 0.5986911 0 3.57 0.601 0 3.611065 0.5990926 0 3.652185 0.5934075 0 3.734148 0.570926 0 3.815 0.534 0 3.815 0.633 0 3.722222 0.6680371 0 3.646778 0.685963 0 3.572 0.6910001 0 3.521104 0.6878733 0 3.472666 0.6787362 0 3.427062 0.6639532 0 3.384666 0.643889 0 3.345854 0.6189081 0 3.311 0.5893751 0 3.280479 0.5556546 0 3.254667 0.5181112 0 3.233937 0.4771094 0 3.218667 0.4330139 0 3.209229 0.3861892 0 3.206 0.337 0 3.209151 0.2881783 0 3.218375 0.2419259 0 3.233328 0.1985625 0 3.253667 0.1584074 0 3.279047 0.1217801 0 3.309125 0.08900004 0 3.343557 0.06038659 0 3.382 0.03625929 0 3.424109 0.01693755 0 3.469542 0.0027408 0 3.517953 -0.006011486 0 3.569 -0.008999943 0 3.658407 -0.003370344 0 3.742259 0.01470369 0 3.829 0.04699999 0 2.851 0.6860001 0 2.782 0.6860001 0 2.489 0 0 2.589 0 0 2.675 0.201 0 2.965 0.201 0 3.056 0 0 3.156 0 0 2.815 0.536 0 2.925 0.289 0 2.713 0.289 0 1.962 0.6820001 0 1.962 0 0 2.06 0 0 2.06 0.296 0 2.113346 0.2956042 0 2.125519 0.2941667 0 2.137719 0.2913125 0 2.150148 0.2866667 0 2.163008 0.2798542 0 2.1765 0.2705 0 2.190825 0.2582291 0 2.222781 0.2234374 0 2.372 0 0 2.489 0 0 2.32375 0.246 0 2.299407 0.2756667 0 2.273176 0.3016667 0 2.244 0.324 0 2.261578 0.3318692 0 2.277792 0.3409537 0 2.292609 0.3512188 0 2.306 0.3626297 0 2.317932 0.3751516 0 2.328375 0.38875 0 2.337297 0.4033901 0 2.344667 0.4190371 0 2.350453 0.4356563 0 2.354625 0.453213 0 2.357151 0.4716725 0 2.358 0.491 0 2.356228 0.5195463 0 2.350991 0.5461204 0 2.342406 0.5706251 0 2.330593 0.592963 0 2.315668 0.6130371 0 2.29775 0.6307501 0 2.276957 0.6460047 0 2.253407 0.6587038 0 2.227219 0.6687501 0 2.198509 0.6760464 0 2.167397 0.6804955 0 2.134 0.6820001 0 2.06 0.5980001 0 2.123 0.5980001 0 2.165843 0.5948148 0 2.183875 0.5909063 0 2.199741 0.5855185 0 2.213509 0.5787003 0 2.22525 0.5705 0 2.235032 0.5609664 0 2.242926 0.5501481 0 2.249 0.5380938 0 2.253324 0.5248519 0 2.255967 0.5104711 0 2.257 0.495 0 2.256579 0.4808421 0 2.254713 0.4669861 0 2.25125 0.4536094 0 2.246037 0.4408889 0 2.238921 0.4290018 0 2.22975 0.418125 0 2.21837 0.4084358 0 2.204629 0.4001111 0 2.188374 0.3933281 0 2.169453 0.3882639 0 2.147712 0.3850955 0 2.06 0.384 0 1.107 0.341 0 1.109903 0.2952506 0 1.118477 0.250838 0 1.132516 0.2082656 0 1.151815 0.168037 0 1.176169 0.1306557 0 1.205375 0.09662497 0 1.239226 0.06644845 0 1.277518 0.04062962 0 1.320047 0.01967185 0 1.366606 0.004078686 0 1.416992 -0.005646407 0 1.471 -0.008999943 0 1.526787 -0.005627274 0 1.578542 0.004148125 0 1.626109 0.01981246 0 1.669333 0.04085183 0 1.708057 0.06675231 0 1.742125 0.097 0 1.77138 0.131081 0 1.795667 0.1684815 0 1.814828 0.2086875 0 1.828709 0.2511852 0 1.837151 0.2954607 0 1.84 0.341 0 1.837076 0.3877998 0 1.82844 0.4328982 0 1.814297 0.4758437 0 1.794852 0.5161852 0 1.77031 0.553471 0 1.740875 0.58725 0 1.706753 0.6170706 0 1.668148 0.6424815 0 1.625266 0.6630313 0 1.57831 0.6782686 0 1.527487 0.6877419 0 1.473 0.6910001 0 1.419373 0.6877229 0 1.369153 0.6781991 0 1.322578 0.6628907 0 1.279889 0.6422593 0 1.241325 0.6167668 0 1.207125 0.586875 0 1.17753 0.5530458 0 1.152778 0.5157408 0 1.133109 0.4754219 0 1.118764 0.4325509 0 1.109981 0.3875896 0 1.208 0.341 0 1.210311 0.3776262 0 1.217074 0.4123426 0 1.228031 0.4449062 0 1.242926 0.4750741 0 1.261501 0.502603 0 1.2835 0.52725 0 1.308666 0.548772 0 1.336741 0.5669259 0 1.367469 0.5814687 0 1.400593 0.5921574 0 1.435855 0.5987488 0 1.473 0.601 0 1.510374 0.5987489 0 1.545829 0.5921574 0 1.579109 0.5814688 0 1.609963 0.566926 0 1.638136 0.548772 0 1.663375 0.5272501 0 1.685427 0.5026031 0 1.704037 0.4750741 0 1.718953 0.4449063 0 1.729921 0.4123426 0 1.736688 0.3776262 0 1.739 0.341 0 1.736688 0.3045839 0 1.729921 0.2700046 0 1.718953 0.2375156 0 1.704037 0.2073704 0 1.685426 0.1798223 0 1.663375 0.155125 0 1.638136 0.1335318 0 1.609963 0.1152963 0 1.579109 0.1006719 0 1.545829 0.08991205 0 1.510374 0.08327031 0 1.473 0.08099997 0 1.435855 0.08327025 0 1.400593 0.08991199 0 1.367469 0.1006718 0 1.336741 0.1152963 0 1.308666 0.1335318 0 1.2835 0.155125 0 1.261501 0.1798223 0 1.242926 0.2073704 0 1.228031 0.2375156 0 1.217074 0.2700046 0 1.210311 0.3045839 0 1.045 0.6820001 0 0.475 0.6820001 0 0.475 0.5940001 0 0.7110001 0.5940001 0 0.7110001 0 0 0.809 0 0 0.809 0.5940001 0 1.045 0.5940001 0 0.399 0.643 0 0.3746852 0.6576667 0 0.3498148 0.6696667 0 0.3245 0.679 0 0.2988519 0.6856667 0 0.2729815 0.6896668 0 0.247 0.6910001 0 0.2166684 0.6895388 0 0.1882638 0.6852269 0 0.1619219 0.6781719 0 0.1377778 0.6684815 0 0.115967 0.6562634 0 0.09662497 0.6416251 0 0.07988715 0.6246743 0 0.06588888 0.6055186 0 0.05476558 0.5842657 0 0.04665273 0.5610232 0 0.0416857 0.5358988 0 0.03999996 0.509 0 0.04580438 0.4656412 0 0.06185185 0.4283796 0 0.08609372 0.3961875 0 0.1164814 0.368037 0 0.2889062 0.2519374 0 0.3131482 0.2264536 0 0.3291956 0.197817 0 0.335 0.165 0 0.3342674 0.1553252 0 0.3320556 0.1454352 0 0.3283438 0.1355312 0 0.3231111 0.1258148 0 0.3163368 0.1164872 0 0.308 0.1077499 0 0.2980799 0.0998044 0 0.2865555 0.09285181 0 0.2734062 0.08709371 0 0.2586111 0.08273148 0 0.2421493 0.07996642 0 0.224 0.07899999 0 0.1908749 0.08188885 0 0.1586666 0.09044444 0 0.127625 0.1045 0 0.09799998 0.1238889 0 0.07004165 0.1484444 0 0.04399996 0.178 0 0.04399996 0.05399996 0 0.07280093 0.03440272 0 0.1024074 0.01855552 0 0.133125 0.006374955 0 0.1652593 -0.00222218 0 0.1991157 -0.00731939 0 0.235 -0.008999943 0 0.2618657 -0.007403314 0 0.2873426 -0.002726793 0 0.31125 0.004859328 0 0.3334074 0.01518517 0 0.3536343 0.0280804 0 0.3717501 0.04337495 0 0.3875741 0.06089872 0 0.400926 0.08048146 0 0.4116251 0.1019531 0 0.4194908 0.1251435 0 0.4243427 0.1498825 0 0.426 0.176 0 0.4201956 0.2258912 0 0.4041482 0.2678796 0 0.3799063 0.3031875 0 0.3495185 0.333037 0 0.3150336 0.3586505 0 0.1770938 0.4431875 0 0.1528519 0.4659537 0 0.1368044 0.4918171 0 0.131 0.522 0 0.1319218 0.5336771 0 0.134625 0.5446667 0 0.1390156 0.5549063 0 0.145 0.5643334 0 0.1524844 0.5728855 0 0.161375 0.5805001 0 0.1715781 0.5871146 0 0.183 0.5926668 0 0.1955469 0.5970938 0 0.209125 0.6003334 0 0.2236406 0.602323 0 0.239 0.6030001 0 0.2627963 0.6015602 0 0.2880371 0.5968149 0 0.3145 0.5881251 0 0.341963 0.5748519 0 0.3702037 0.5563566 0 0.399 0.532 0</float_array>
          <technique_common>
            <accessor source="#Text_001-mesh-positions-array" count="351" stride="3">
              <param name="X" type="float"/>
              <param name="Y" type="float"/>
              <param name="Z" type="float"/>
            </accessor>
          </technique_common>
        </source>
        <source id="Text_001-mesh-normals">
          <float_array id="Text_001-mesh-normals-array" count="6">0 0 1 0 0 -1</float_array>
          <technique_common>
            <accessor source="#Text_001-mesh-normals-array" count="2" stride="3">
              <param name="X" type="float"/>
              <param name="Y" type="float"/>
              <param name="Z" type="float"/>
            </accessor>
          </technique_common>
        </source>
        <source id="Text_001-mesh-map-0">
          <float_array id="Text_001-mesh-map-0-array" count="2058">0.8181818 0 0.09090906 0 0.5454546 0 1 0 0.1428571 0 0.2857143 0 0.8947368 0 0.9052632 0 0.1157894 0 0.7623763 0 0.2673267 0 0.2772277 0 0.3789474 0 0.6315789 0 0.6421053 0 0.1 0 0.2 0 1 0 0.7142857 0 0.4285714 0 0.5714286 0 0.8099173 0 0.8181818 0 0.1818181 0 0 0 0.8 0 0.9 0 0.9354839 0 0.9462366 0 0.4516129 0 0.4285714 0 1 0 0.2857143 0 0.8571429 0 1 0 0.4285714 0 0.6666667 0 0.6774194 0 0.7311828 0 0.9090909 0 1 0 0 0 0.1818181 0 0.2727273 0 0.4545454 0 0.2727273 0 0.3636364 0 0.4545454 0 0.9090909 0 0 0 0.09090906 0 0.6363636 0 0.7272728 0 0.8181818 0 0.8181818 0 0.9090909 0 0.09090906 0 0.09090906 0 0.1818181 0 0.5454546 0 0.1818181 0 0.4545454 0 0.5454546 0 0.5454546 0 0.6363636 0 0.8181818 0 1 0 0 0 0.1428571 0 0.168421 0 0.1789473 0 0.8736842 0 0.168421 0 0.8736842 0 0.1578947 0 0.8736842 0 0.8842105 0 0.1263158 0 0.1473684 0 0.8736842 0 0.1368421 0 0.1473684 0 0.1578947 0 0.8736842 0 0.1263158 0 0.1368421 0 0.8736842 0 0.1052631 0 0.1157894 0 0.9052632 0 0.1157894 0 0.1263158 0 0.8947368 0 0.08421051 0 0.09473681 0 0.9052632 0 0.09473681 0 0.1052631 0 0.9052632 0 0.9052632 0 0.07368421 0 0.08421051 0 0.8842105 0 0.8947368 0 0.1263158 0 0.9603961 0 1 0 0.03960394 0 1 0 0 0 0.02970296 0 0 0 0.009900987 0 0.02970296 0 0.009900987 0 0.01980197 0 0.02970296 0 0.8811881 0 0.9207921 0 0.1584158 0 0.9207921 0 0.9603961 0 0.1188119 0 0.1584158 0 0.9207921 0 0.1188119 0 0.8613861 0 0.8712871 0 0.1782178 0 0.8712871 0 0.8811881 0 0.1683168 0 0.8415842 0 0.8514851 0 0.1980198 0 0.8514851 0 0.8613861 0 0.1881188 0 0.8217822 0 0.8316832 0 0.2178217 0 0.8316832 0 0.8415842 0 0.2079207 0 0.2079207 0 0.8415842 0 0.1980198 0 0.8019802 0 0.8118812 0 0.2376238 0 0.8118812 0 0.8217822 0 0.2277228 0 0.2376238 0 0.8118812 0 0.2277228 0 0.7821782 0 0.7920792 0 0.2574257 0 0.7920792 0 0.8019802 0 0.2475247 0 0.7623763 0 0.7722772 0 0.2673267 0 0.7722772 0 0.7821782 0 0.2574257 0 0.7425743 0 0.7524753 0 0.2871287 0 0.7524753 0 0.7623763 0 0.2772277 0 0.7227723 0 0.7326733 0 0.3069307 0 0.7326733 0 0.7425743 0 0.2970297 0 0.7227723 0 0.3069307 0 0.3168317 0 0.7029703 0 0.7128713 0 0.3267326 0 0.7128713 0 0.7227723 0 0.3168317 0 0.7029703 0 0.3267326 0 0.3366336 0 0.6831683 0 0.6930693 0 0.3465346 0 0.6930693 0 0.7029703 0 0.3366336 0 0.6831683 0 0.3465346 0 0.3564357 0 0.6633663 0 0.6732673 0 0.3663367 0 0.6732673 0 0.6831683 0 0.3564357 0 0.6435644 0 0.6534653 0 0.3960396 0 0.6534653 0 0.6633663 0 0.3762376 0 0.3960396 0 0.6534653 0 0.3861386 0 0.5643565 0 0.6039604 0 0.4356436 0 0.6039604 0 0.6435644 0 0.4158416 0 0.4356436 0 0.6039604 0 0.4158416 0 0.5148515 0 0.5247525 0 0.4752475 0 0.5247525 0 0.5643565 0 0.4752475 0 0.6732673 0 0.3564357 0 0.3663367 0 0.7524753 0 0.2772277 0 0.2871287 0 0.7722772 0 0.2574257 0 0.2673267 0 0.7920792 0 0.2475247 0 0.2574257 0 0.2475247 0 0.8019802 0 0.2376238 0 0.8514851 0 0.1881188 0 0.1980198 0 0.1881188 0 0.8613861 0 0.1782178 0 0.8712871 0 0.1683168 0 0.1782178 0 1 0 0.02970296 0 0.03960394 0 0.8811881 0 0.1584158 0 0.1683168 0 0.3267326 0 0.7128713 0 0.3168317 0 0.4752475 0 0.5643565 0 0.4356436 0 0.4158416 0 0.6435644 0 0.3960396 0 0.9603961 0 0.03960394 0 0.1188119 0 0.3861386 0 0.6534653 0 0.3762376 0 0.3663367 0 0.3762376 0 0.6633663 0 0.8316832 0 0.2079207 0 0.2178217 0 0.3465346 0 0.6930693 0 0.3366336 0 0.8217822 0 0.2178217 0 0.2277228 0 0.3069307 0 0.7326733 0 0.2970297 0 0.2871287 0 0.2970297 0 0.7425743 0 0.8631579 0 0.8736842 0 0.1789473 0 0.1789473 0 0.1894736 0 0.8210526 0 0.1894736 0 0.2 0 0.8105263 0 0.1789473 0 0.8210526 0 0.831579 0 0.2 0 0.2105263 0 0.8 0 0.2105263 0 0.2210526 0 0.7894737 0 0.2210526 0 0.2315789 0 0.7789474 0 0.2315789 0 0.2421053 0 0.7684211 0 0.2210526 0 0.7789474 0 0.7894737 0 0.2421053 0 0.2526316 0 0.7578948 0 0.2526316 0 0.2631579 0 0.7578948 0 0.2421053 0 0.7578948 0 0.7684211 0 0.2631579 0 0.2736842 0 0.7473684 0 0.2736842 0 0.2842105 0 0.7368421 0 0.7473684 0 0.2736842 0 0.7368421 0 0.2842105 0 0.2947368 0 0.7263158 0 0.2947368 0 0.3052632 0 0.7157895 0 0.7157895 0 0.3052632 0 0.7052631 0 0.3052632 0 0.3157895 0 0.7052631 0 0.3157895 0 0.3263158 0 0.6947368 0 0.3263158 0 0.3368421 0 0.6842105 0 0.3368421 0 0.3473684 0 0.6736842 0 0.6842105 0 0.3368421 0 0.6736842 0 0.3473684 0 0.3578947 0 0.6631579 0 0.3578947 0 0.368421 0 0.6526316 0 0.6631579 0 0.3578947 0 0.6526316 0 0.368421 0 0.3789474 0 0.6421053 0 0.3789474 0 0.3894737 0 0.6210526 0 0.3894737 0 0.4 0 0.6105263 0 0.4 0 0.4105263 0 0.6 0 0.4105263 0 0.4210526 0 0.5894737 0 0.4210526 0 0.4315789 0 0.5789474 0 0.5894737 0 0.4210526 0 0.5789474 0 0.4315789 0 0.4421052 0 0.5684211 0 0.4421052 0 0.4526316 0 0.5578948 0 0.4315789 0 0.5684211 0 0.5789474 0 0.4526316 0 0.4631579 0 0.5473684 0 0.4631579 0 0.4736842 0 0.5368421 0 0.4736842 0 0.4842105 0 0.5263158 0 0.4842105 0 0.4947369 0 0.5157895 0 0.4947369 0 0 0 0.5052632 0 0 0 0.01052629 0 0.5052632 0 0.5052632 0 0.01052629 0 1 0 0.01052629 0 0.02105259 0 1 0 0.02105259 0 0.03157889 0 0.9894737 0 1 0 0.02105259 0 0.9894737 0 0.03157889 0 0.04210525 0 0.9789474 0 0.04210525 0 0.05263155 0 0.9684211 0 0.9684211 0 0.05263155 0 0.9578948 0 0.05263155 0 0.06315785 0 0.9578948 0 0.06315785 0 0.07368421 0 0.9473685 0 0.9473685 0 0.07368421 0 0.9368421 0 0.07368421 0 0.9052632 0 0.9157895 0 0.07368421 0 0.9157895 0 0.9263158 0 0.4631579 0 0.5368421 0 0.5473684 0 0.4842105 0 0.5157895 0 0.5263158 0 0.3789474 0 0.6210526 0 0.6315789 0 0.4 0 0.6 0 0.6105263 0 0.6 0 0.4105263 0 0.5894737 0 0.3263158 0 0.6842105 0 0.6947368 0 0.3157895 0 0.6947368 0 0.7052631 0 0.2105263 0 0.7894737 0 0.8 0 0.8631579 0 0.1789473 0 0.8526316 0 0.8526316 0 0.1789473 0 0.8421053 0 0.8421053 0 0.1789473 0 0.831579 0 0.06315785 0 0.9473685 0 0.9578948 0 0.07368421 0 0.9263158 0 0.9368421 0 0.8210526 0 0.1894736 0 0.8105263 0 0.04210525 0 0.9684211 0 0.9789474 0 0.8 0 0.8105263 0 0.2 0 0.03157889 0 0.9789474 0 0.9894737 0 0.7789474 0 0.2315789 0 0.7684211 0 0.4947369 0 0.5052632 0 0.5157895 0 0.7578948 0 0.2631579 0 0.7473684 0 0.4736842 0 0.5263158 0 0.5368421 0 0.7263158 0 0.7368421 0 0.2842105 0 0.7157895 0 0.7263158 0 0.2947368 0 0.4526316 0 0.5473684 0 0.5578948 0 0.5578948 0 0.5684211 0 0.4421052 0 0.6736842 0 0.3473684 0 0.6631579 0 0.3894737 0 0.6105263 0 0.6210526 0 0.6421053 0 0.6526316 0 0.368421 0 1 0 0.8 0 0.1 0 0.8 0 0 0 0.1 0 0.7142857 0 0.8571429 0 0.4285714 0 0.6280992 0 0.6363636 0 0.3636364 0 0.6363636 0 0.6446281 0 0.3553719 0 0.3553719 0 0.6446281 0 0.3471074 0 0.6446281 0 0.6528926 0 0.3471074 0 0.6528926 0 0.661157 0 0.338843 0 0.661157 0 0.6694215 0 0.3305785 0 0.6694215 0 0.677686 0 0.322314 0 0.661157 0 0.3305785 0 0.338843 0 0.677686 0 0.6859504 0 0.3140496 0 0.6859504 0 0.6942149 0 0.3057851 0 0.6942149 0 0.7024794 0 0.2975206 0 0.7024794 0 0.7107438 0 0.2892562 0 0.7107438 0 0.7190083 0 0.2892562 0 0.7190083 0 0.7272728 0 0.2809917 0 0.7272728 0 0.7355372 0 0.2727273 0 0.7355372 0 0.7438017 0 0.2727273 0 0.7272728 0 0.2727273 0 0.2809917 0 0.7438017 0 0.7768595 0 0.2314049 0 0.7024794 0 0.2892562 0 0.2975206 0 0.7190083 0 0.2809917 0 0.2892562 0 0.322314 0 0.677686 0 0.3140496 0 0.6528926 0 0.338843 0 0.3471074 0 0.6115702 0 0.6198347 0 0.3801653 0 0.6198347 0 0.6280992 0 0.3719008 0 0.3719008 0 0.6280992 0 0.3636364 0 0.5867769 0 0.6033058 0 0.3966942 0 0.6033058 0 0.6115702 0 0.3884298 0 0.3884298 0 0.6115702 0 0.3801653 0 0.553719 0 0.570248 0 0.4297521 0 0.570248 0 0.5867769 0 0.4132232 0 0.4297521 0 0.570248 0 0.4132232 0 0.5206612 0 0.5371901 0 0.446281 0 0.5371901 0 0.553719 0 0.4297521 0 0.446281 0 0.5371901 0 0.4297521 0 0.4958677 0 0.5041322 0 0.4793388 0 0.5041322 0 0.5206612 0 0.4628099 0 0.4793388 0 0.5041322 0 0.4628099 0 0.3305785 0 0.6694215 0 0.322314 0 0.7768595 0 0.785124 0 0.2231405 0 0.6363636 0 0.3553719 0 0.3636364 0 0.4628099 0 0.5206612 0 0.446281 0 0.9834711 0 1 0 0 0 0 0 0.0165289 0 0.9669421 0 0.0165289 0 0.0330578 0 0.9504132 0 0.0330578 0 0.04958677 0 0.9504132 0 0.04958677 0 0.06611567 0 0.9338843 0 0.9504132 0 0.04958677 0 0.9338843 0 0.06611567 0 0.08264458 0 0.9173554 0 0.08264458 0 0.09917354 0 0.9173554 0 0.06611567 0 0.9173554 0 0.9338843 0 0.09917354 0 0.107438 0 0.9008265 0 0.107438 0 0.1157025 0 0.8842976 0 0.9008265 0 0.107438 0 0.892562 0 0.1157025 0 0.1239669 0 0.8760331 0 0.1239669 0 0.1322314 0 0.8677686 0 0.8595041 0 0.1322314 0 0.1404958 0 0.1404958 0 0.1487603 0 0.8512397 0 0.8429752 0 0.1487603 0 0.1570248 0 0.1570248 0 0.1652892 0 0.8347107 0 0.8347107 0 0.1652892 0 0.8264463 0 0.1652892 0 0.1735537 0 0.8264463 0 0.1735537 0 0.1818181 0 0.8181818 0 0.8264463 0 0.1735537 0 0.8181818 0 0.1818181 0 0.1900826 0 0.8099173 0 0.1900826 0 0.1983471 0 0.8016529 0 0.1983471 0 0.2066115 0 0.7933884 0 0.2066115 0 0.214876 0 0.7933884 0 0.214876 0 0.2231405 0 0.785124 0 0.2231405 0 0.2314049 0 0.7768595 0 0.2314049 0 0.2727273 0 0.7438017 0 0.214876 0 0.785124 0 0.7933884 0 0.1900826 0 0.8016529 0 0.8099173 0 0.1322314 0 0.8595041 0 0.8677686 0 0.1487603 0 0.8429752 0 0.8512397 0 0.8429752 0 0.1570248 0 0.8347107 0 0.0165289 0 0.9504132 0 0.9669421 0 0.9669421 0 0.9834711 0 0 0 0.1983471 0 0.7933884 0 0.8016529 0 0.9173554 0 0.09917354 0 0.9008265 0 0.892562 0 0.107438 0 0.8842976 0 0.3966942 0 0.4132232 0 0.5867769 0 0.3884298 0 0.3966942 0 0.6033058 0 0.8760331 0 0.8842976 0 0.1157025 0 0.8677686 0 0.8760331 0 0.1239669 0 0.3719008 0 0.3801653 0 0.6198347 0 0.8512397 0 0.8595041 0 0.1404958 0 0.3140496 0 0.6859504 0 0.3057851 0 0.2975206 0 0.3057851 0 0.6942149 0 0.2 0 0.3 0 0.4 0 0.5 0 0.6 0 0.7 0 1 0 0.2 0 0.4 0 0.5 0 0.7 0 0.9 0 0.7 0 0 0 0.9 0 1 0 0.4 0 0.9 0 0.4 0 0.5 0 0.9 0 0.1827957 0 0.1935483 0 0.3870968 0 0.3870968 0 0.4086021 0 0.1397849 0 0.4086021 0 0.4301075 0 0.1397849 0 0.4516129 0 0.4623656 0 0.9354839 0 0.4623656 0 0.4731183 0 0.9354839 0 0.9354839 0 0.4731183 0 0.9247312 0 0.4301075 0 0.4516129 0 0.1182795 0 0.1397849 0 0.1827957 0 0.3870968 0 0.1182795 0 0.1397849 0 0.4301075 0 0.4731183 0 0.4838709 0 0.9247312 0 0.9247312 0 0.4838709 0 0.4946237 0 0.1075268 0 0.1182795 0 0.4516129 0 0.9247312 0 0.4946237 0 0.9139785 0 0.4946237 0 0.5053763 0 0.9139785 0 0.5053763 0 0.516129 0 0.9032258 0 0.516129 0 0.5268817 0 0.9032258 0 0.5268817 0 0.5376344 0 0.8924731 0 0.8924731 0 0.5376344 0 0.5483871 0 0.5483871 0 0.5591398 0 0.8817204 0 0.5591398 0 0.5698925 0 0.8709678 0 0.5698925 0 0.5806452 0 0.8709678 0 0.5591398 0 0.8709678 0 0.8817204 0 0.5806452 0 0.5913978 0 0.8602151 0 0.5913978 0 0.6021506 0 0.8494624 0 0.5806452 0 0.8602151 0 0.8709678 0 0.6021506 0 0.6129032 0 0.8387097 0 0.6129032 0 0.6236559 0 0.827957 0 0.6021506 0 0.8387097 0 0.8494624 0 0.6236559 0 0.6344086 0 0.8172043 0 0.6344086 0 0.7311828 0 0.7526882 0 0.6344086 0 0.7526882 0 0.7634409 0 0.5483871 0 0.8817204 0 0.8924731 0 0.5053763 0 0.9032258 0 0.9139785 0 0.09677416 0 0.1075268 0 0.4516129 0 0.5268817 0 0.8924731 0 0.9032258 0 0.6344086 0 0.7634409 0 0.7741935 0 0.6344086 0 0.7741935 0 0.7849463 0 0.08602148 0 0.09677416 0 0.9677419 0 0.09677416 0 0.4516129 0 0.9677419 0 0.0752688 0 0.08602148 0 0.9784947 0 0.6344086 0 0.7849463 0 0.795699 0 0.6344086 0 0.795699 0 0.8064516 0 0.06451612 0 0.0752688 0 0.9784947 0 0.08602148 0 0.9677419 0 0.9784947 0 0.05376338 0 0.06451612 0 0.9784947 0 0.6344086 0 0.8064516 0 0.8172043 0 0.03225803 0 0.05376338 0 1 0 0.01075267 0 0.02150535 0 0.03225803 0 0.7204301 0 0.7096774 0 0 0 1 0 0.7204301 0 0 0 0 0 0.01075267 0 1 0 0.01075267 0 0.03225803 0 1 0 0.6236559 0 0.8172043 0 0.827957 0 0.827957 0 0.8387097 0 0.6129032 0 0.9784947 0 1 0 0.05376338 0 0.8494624 0 0.8602151 0 0.5913978 0 0.9569892 0 0.9677419 0 0.4516129 0 0.9462366 0 0.9569892 0 0.4516129 0 0.6774194 0 0.6881721 0 0.7311828 0 0.6881721 0 0.6989247 0 0.7311828 0 0.6989247 0 0.7096774 0 0.7311828 0 0.7096774 0 0.7204301 0 0.7311828 0 0.7311828 0 0.6344086 0 0.6451613 0 0.655914 0 0.7311828 0 0.6451613 0 0.655914 0 0.6666667 0 0.7311828 0</float_array>
          <technique_common>
            <accessor source="#Text_001-mesh-map-0-array" count="1029" stride="2">
              <param name="S" type="float"/>
              <param name="T" type="float"/>
            </accessor>
          </technique_common>
        </source>
        <vertices id="Text_001-mesh-vertices">
          <input semantic="POSITION" source="#Text_001-mesh-positions"/>
        </vertices>
        <triangles material="Material_003-material" count="343">
          <input semantic="VERTEX" source="#Text_001-mesh-vertices" offset="0"/>
          <input semantic="NORMAL" source="#Text_001-mesh-normals" offset="1"/>
          <input semantic="TEXCOORD" source="#Text_001-mesh-map-0" offset="2" set="0"/>
          <p>9 0 0 1 0 1 6 0 2 259 0 3 253 0 4 254 0 5 241 0 6 242 0 7 167 0 8 62 0 9 29 0 10 30 0 11 192 0 12 216 0 13 217 0 14 79 0 15 80 0 16 88 0 17 257 0 18 255 0 19 256 0 20 333 0 21 334 0 22 276 0 23 78 0 24 86 0 25 87 0 26 150 0 27 151 0 28 106 0 29 255 1 30 259 1 31 254 1 32 258 0 33 259 0 34 255 0 35 126 0 36 127 0 37 132 0 38 10 0 39 11 0 40 0 0 41 2 0 42 3 0 43 5 0 44 3 0 45 4 0 46 5 0 47 10 0 48 0 0 49 1 0 50 7 0 51 8 0 52 9 0 53 9 0 54 10 0 55 1 0 56 1 0 57 2 0 58 6 0 59 2 0 60 5 0 61 6 0 62 6 0 63 7 0 64 9 0 65 259 0 66 252 0 67 253 0 68 172 0 69 173 0 70 239 0 71 172 0 72 239 0 73 171 0 74 239 0 75 240 0 76 168 0 77 170 0 78 239 0 79 169 0 80 170 0 81 171 0 82 239 0 83 168 0 84 169 0 85 239 0 86 166 0 87 167 0 88 242 0 89 167 0 90 168 0 91 241 0 92 164 0 93 165 0 94 242 0 95 165 0 96 166 0 97 242 0 98 242 0 99 163 0 100 164 0 101 240 0 102 241 0 103 168 0 104 76 0 105 77 0 106 16 0 107 77 0 108 12 0 109 15 0 110 12 0 111 13 0 112 15 0 113 13 0 114 14 0 115 15 0 116 74 0 117 75 0 118 18 0 119 75 0 120 76 0 121 17 0 122 18 0 123 75 0 124 17 0 125 72 0 126 73 0 127 20 0 128 73 0 129 74 0 130 19 0 131 70 0 132 71 0 133 22 0 134 71 0 135 72 0 136 21 0 137 68 0 138 69 0 139 24 0 140 69 0 141 70 0 142 23 0 143 23 0 144 70 0 145 22 0 146 66 0 147 67 0 148 26 0 149 67 0 150 68 0 151 25 0 152 26 0 153 67 0 154 25 0 155 64 0 156 65 0 157 28 0 158 65 0 159 66 0 160 27 0 161 62 0 162 63 0 163 29 0 164 63 0 165 64 0 166 28 0 167 60 0 168 61 0 169 31 0 170 61 0 171 62 0 172 30 0 173 58 0 174 59 0 175 33 0 176 59 0 177 60 0 178 32 0 179 58 0 180 33 0 181 34 0 182 56 0 183 57 0 184 35 0 185 57 0 186 58 0 187 34 0 188 56 0 189 35 0 190 36 0 191 54 0 192 55 0 193 37 0 194 55 0 195 56 0 196 36 0 197 54 0 198 37 0 199 38 0 200 52 0 201 53 0 202 39 0 203 53 0 204 54 0 205 38 0 206 50 0 207 51 0 208 42 0 209 51 0 210 52 0 211 40 0 212 42 0 213 51 0 214 41 0 215 48 0 216 49 0 217 44 0 218 49 0 219 50 0 220 43 0 221 44 0 222 49 0 223 43 0 224 46 0 225 47 0 226 45 0 227 47 0 228 48 0 229 45 0 230 53 0 231 38 0 232 39 0 233 61 0 234 30 0 235 31 0 236 63 0 237 28 0 238 29 0 239 65 0 240 27 0 241 28 0 242 27 0 243 66 0 244 26 0 245 71 0 246 21 0 247 22 0 248 21 0 249 72 0 250 20 0 251 73 0 252 19 0 253 20 0 254 77 0 255 15 0 256 16 0 257 74 0 258 18 0 259 19 0 260 35 0 261 57 0 262 34 0 263 45 0 264 48 0 265 44 0 266 43 0 267 50 0 268 42 0 269 76 0 270 16 0 271 17 0 272 41 0 273 51 0 274 40 0 275 39 0 276 40 0 277 52 0 278 69 0 279 23 0 280 24 0 281 37 0 282 55 0 283 36 0 284 68 0 285 24 0 286 25 0 287 33 0 288 59 0 289 32 0 290 31 0 291 32 0 292 60 0 293 238 0 294 239 0 295 173 0 296 173 0 297 174 0 298 234 0 299 174 0 300 175 0 301 233 0 302 173 0 303 234 0 304 235 0 305 175 0 306 176 0 307 232 0 308 176 0 309 177 0 310 231 0 311 177 0 312 178 0 313 230 0 314 178 0 315 179 0 316 229 0 317 177 0 318 230 0 319 231 0 320 179 0 321 180 0 322 228 0 323 180 0 324 181 0 325 228 0 326 179 0 327 228 0 328 229 0 329 181 0 330 182 0 331 227 0 332 182 0 333 183 0 334 226 0 335 227 0 336 182 0 337 226 0 338 183 0 339 184 0 340 225 0 341 184 0 342 185 0 343 224 0 344 224 0 345 185 0 346 223 0 347 185 0 348 186 0 349 223 0 350 186 0 351 187 0 352 222 0 353 187 0 354 188 0 355 221 0 356 188 0 357 189 0 358 220 0 359 221 0 360 188 0 361 220 0 362 189 0 363 190 0 364 219 0 365 190 0 366 191 0 367 218 0 368 219 0 369 190 0 370 218 0 371 191 0 372 192 0 373 217 0 374 192 0 375 193 0 376 215 0 377 193 0 378 194 0 379 214 0 380 194 0 381 195 0 382 213 0 383 195 0 384 196 0 385 212 0 386 196 0 387 197 0 388 211 0 389 212 0 390 196 0 391 211 0 392 197 0 393 198 0 394 210 0 395 198 0 396 199 0 397 209 0 398 197 0 399 210 0 400 211 0 401 199 0 402 200 0 403 208 0 404 200 0 405 201 0 406 207 0 407 201 0 408 202 0 409 206 0 410 202 0 411 203 0 412 205 0 413 203 0 414 156 0 415 204 0 416 156 0 417 157 0 418 204 0 419 204 0 420 157 0 421 251 0 422 157 0 423 158 0 424 251 0 425 158 0 426 159 0 427 250 0 428 251 0 429 158 0 430 250 0 431 159 0 432 160 0 433 249 0 434 160 0 435 161 0 436 248 0 437 248 0 438 161 0 439 247 0 440 161 0 441 162 0 442 247 0 443 162 0 444 163 0 445 246 0 446 246 0 447 163 0 448 245 0 449 163 0 450 242 0 451 243 0 452 163 0 453 243 0 454 244 0 455 200 0 456 207 0 457 208 0 458 202 0 459 205 0 460 206 0 461 192 0 462 215 0 463 216 0 464 194 0 465 213 0 466 214 0 467 213 0 468 195 0 469 212 0 470 187 0 471 221 0 472 222 0 473 186 0 474 222 0 475 223 0 476 176 0 477 231 0 478 232 0 479 238 0 480 173 0 481 237 0 482 237 0 483 173 0 484 236 0 485 236 0 486 173 0 487 235 0 488 162 0 489 246 0 490 247 0 491 163 0 492 244 0 493 245 0 494 234 0 495 174 0 496 233 0 497 160 0 498 248 0 499 249 0 500 232 0 501 233 0 502 175 0 503 159 0 504 249 0 505 250 0 506 230 0 507 178 0 508 229 0 509 203 0 510 204 0 511 205 0 512 228 0 513 181 0 514 227 0 515 201 0 516 206 0 517 207 0 518 225 0 519 226 0 520 183 0 521 224 0 522 225 0 523 184 0 524 199 0 525 208 0 526 209 0 527 209 0 528 210 0 529 198 0 530 220 0 531 189 0 532 219 0 533 193 0 534 214 0 535 215 0 536 217 0 537 218 0 538 191 0 539 88 0 540 86 0 541 79 0 542 86 0 543 78 0 544 79 0 545 257 0 546 258 0 547 255 0 548 314 0 549 315 0 550 294 0 551 315 0 552 316 0 553 293 0 554 293 0 555 316 0 556 292 0 557 316 0 558 317 0 559 292 0 560 317 0 561 318 0 562 291 0 563 318 0 564 319 0 565 290 0 566 319 0 567 320 0 568 289 0 569 318 0 570 290 0 571 291 0 572 320 0 573 321 0 574 288 0 575 321 0 576 322 0 577 287 0 578 322 0 579 323 0 580 286 0 581 323 0 582 324 0 583 285 0 584 324 0 585 325 0 586 285 0 587 325 0 588 326 0 589 284 0 590 326 0 591 327 0 592 283 0 593 327 0 594 328 0 595 283 0 596 326 0 597 283 0 598 284 0 599 328 0 600 329 0 601 282 0 602 323 0 603 285 0 604 286 0 605 325 0 606 284 0 607 285 0 608 289 0 609 320 0 610 288 0 611 317 0 612 291 0 613 292 0 614 312 0 615 313 0 616 296 0 617 313 0 618 314 0 619 295 0 620 295 0 621 314 0 622 294 0 623 310 0 624 311 0 625 298 0 626 311 0 627 312 0 628 297 0 629 297 0 630 312 0 631 296 0 632 308 0 633 309 0 634 300 0 635 309 0 636 310 0 637 299 0 638 300 0 639 309 0 640 299 0 641 306 0 642 307 0 643 301 0 644 307 0 645 308 0 646 300 0 647 301 0 648 307 0 649 300 0 650 304 0 651 305 0 652 303 0 653 305 0 654 306 0 655 302 0 656 303 0 657 305 0 658 302 0 659 290 0 660 319 0 661 289 0 662 329 0 663 330 0 664 281 0 665 315 0 666 293 0 667 294 0 668 302 0 669 306 0 670 301 0 671 349 0 672 350 0 673 260 0 674 260 0 675 261 0 676 348 0 677 261 0 678 262 0 679 347 0 680 262 0 681 263 0 682 347 0 683 263 0 684 264 0 685 346 0 686 347 0 687 263 0 688 346 0 689 264 0 690 265 0 691 345 0 692 265 0 693 266 0 694 345 0 695 264 0 696 345 0 697 346 0 698 266 0 699 267 0 700 344 0 701 267 0 702 268 0 703 342 0 704 344 0 705 267 0 706 343 0 707 268 0 708 269 0 709 341 0 710 269 0 711 270 0 712 340 0 713 339 0 714 270 0 715 271 0 716 271 0 717 272 0 718 338 0 719 337 0 720 272 0 721 273 0 722 273 0 723 274 0 724 336 0 725 336 0 726 274 0 727 335 0 728 274 0 729 275 0 730 335 0 731 275 0 732 276 0 733 334 0 734 335 0 735 275 0 736 334 0 737 276 0 738 277 0 739 333 0 740 277 0 741 278 0 742 332 0 743 278 0 744 279 0 745 331 0 746 279 0 747 280 0 748 331 0 749 280 0 750 281 0 751 330 0 752 281 0 753 282 0 754 329 0 755 282 0 756 283 0 757 328 0 758 280 0 759 330 0 760 331 0 761 277 0 762 332 0 763 333 0 764 270 0 765 339 0 766 340 0 767 272 0 768 337 0 769 338 0 770 337 0 771 273 0 772 336 0 773 261 0 774 347 0 775 348 0 776 348 0 777 349 0 778 260 0 779 278 0 780 331 0 781 332 0 782 345 0 783 266 0 784 344 0 785 343 0 786 267 0 787 342 0 788 298 0 789 299 0 790 310 0 791 297 0 792 298 0 793 311 0 794 341 0 795 342 0 796 268 0 797 340 0 798 341 0 799 269 0 800 295 0 801 296 0 802 313 0 803 338 0 804 339 0 805 271 0 806 288 0 807 321 0 808 287 0 809 286 0 810 287 0 811 322 0 812 80 0 813 81 0 814 82 0 815 83 0 816 84 0 817 85 0 818 88 0 819 80 0 820 82 0 821 83 0 822 85 0 823 87 0 824 85 0 825 78 0 826 87 0 827 88 0 828 82 0 829 87 0 830 82 0 831 83 0 832 87 0 833 101 0 834 102 0 835 103 0 836 103 0 837 104 0 838 100 0 839 104 0 840 105 0 841 100 0 842 106 0 843 107 0 844 150 0 845 107 0 846 108 0 847 150 0 848 150 0 849 108 0 850 149 0 851 105 0 852 106 0 853 99 0 854 100 0 855 101 0 856 103 0 857 99 0 858 100 0 859 105 0 860 108 0 861 109 0 862 149 0 863 149 0 864 109 0 865 110 0 866 98 0 867 99 0 868 106 0 869 149 0 870 110 0 871 148 0 872 110 0 873 111 0 874 148 0 875 111 0 876 112 0 877 147 0 878 112 0 879 113 0 880 147 0 881 113 0 882 114 0 883 146 0 884 146 0 885 114 0 886 115 0 887 115 0 888 116 0 889 145 0 890 116 0 891 117 0 892 144 0 893 117 0 894 118 0 895 144 0 896 116 0 897 144 0 898 145 0 899 118 0 900 119 0 901 143 0 902 119 0 903 120 0 904 142 0 905 118 0 906 143 0 907 144 0 908 120 0 909 121 0 910 141 0 911 121 0 912 122 0 913 140 0 914 120 0 915 141 0 916 142 0 917 122 0 918 123 0 919 139 0 920 123 0 921 132 0 922 133 0 923 123 0 924 133 0 925 134 0 926 115 0 927 145 0 928 146 0 929 111 0 930 147 0 931 148 0 932 97 0 933 98 0 934 106 0 935 113 0 936 146 0 937 147 0 938 123 0 939 134 0 940 135 0 941 123 0 942 135 0 943 136 0 944 96 0 945 97 0 946 153 0 947 97 0 948 106 0 949 153 0 950 95 0 951 96 0 952 154 0 953 123 0 954 136 0 955 137 0 956 123 0 957 137 0 958 138 0 959 94 0 960 95 0 961 154 0 962 96 0 963 153 0 964 154 0 965 93 0 966 94 0 967 154 0 968 123 0 969 138 0 970 139 0 971 92 0 972 93 0 973 155 0 974 90 0 975 91 0 976 92 0 977 131 0 978 130 0 979 89 0 980 155 0 981 131 0 982 89 0 983 89 0 984 90 0 985 155 0 986 90 0 987 92 0 988 155 0 989 122 0 990 139 0 991 140 0 992 140 0 993 141 0 994 121 0 995 154 0 996 155 0 997 93 0 998 142 0 999 143 0 1000 119 0 1001 152 0 1002 153 0 1003 106 0 1004 151 0 1005 152 0 1006 106 0 1007 127 0 1008 128 0 1009 132 0 1010 128 0 1011 129 0 1012 132 0 1013 129 0 1014 130 0 1015 132 0 1016 130 0 1017 131 0 1018 132 0 1019 132 0 1020 123 0 1021 124 0 1022 125 0 1023 132 0 1024 124 0 1025 125 0 1026 126 0 1027 132 0 1028</p>
        </triangles>
      </mesh>
    </geometry>
    <geometry id="Cube_001-mesh" name="Cube.001">
      <mesh>
        <source id="Cube_001-mesh-positions">
          <float_array id="Cube_001-mesh-positions-array" count="24">-0.223456 -0.04633694 0 -0.223456 -0.04633694 0 -0.223456 0.04633694 0 -0.223456 0.04633694 0 0.223456 -0.04633694 0 0.223456 -0.04633694 0 0.223456 0.04633694 0 0.223456 0.04633694 0</float_array>
          <technique_common>
            <accessor source="#Cube_001-mesh-positions-array" count="8" stride="3">
              <param name="X" type="float"/>
              <param name="Y" type="float"/>
              <param name="Z" type="float"/>
            </accessor>
          </technique_common>
        </source>
        <source id="Cube_001-mesh-normals">
          <float_array id="Cube_001-mesh-normals-array" count="6">0 0 1 0 0 -1</float_array>
          <technique_common>
            <accessor source="#Cube_001-mesh-normals-array" count="2" stride="3">
              <param name="X" type="float"/>
              <param name="Y" type="float"/>
              <param name="Z" type="float"/>
            </accessor>
          </technique_common>
        </source>
        <source id="Cube_001-mesh-map-0">
          <float_array id="Cube_001-mesh-map-0-array" count="72">0.625 0 0.375 0.25 0.375 0 0.625 0.25 0.375 0.5 0.375 0.25 0.625 0.5 0.375 0.75 0.375 0.5 0.625 0.75 0.375 1 0.375 0.75 0.375 0.5 0.125 0.75 0.125 0.5 0.875 0.5 0.625 0.75 0.625 0.5 0.625 0 0.625 0.25 0.375 0.25 0.625 0.25 0.625 0.5 0.375 0.5 0.625 0.5 0.625 0.75 0.375 0.75 0.625 0.75 0.625 1 0.375 1 0.375 0.5 0.375 0.75 0.125 0.75 0.875 0.5 0.875 0.75 0.625 0.75</float_array>
          <technique_common>
            <accessor source="#Cube_001-mesh-map-0-array" count="36" stride="2">
              <param name="S" type="float"/>
              <param name="T" type="float"/>
            </accessor>
          </technique_common>
        </source>
        <vertices id="Cube_001-mesh-vertices">
          <input semantic="POSITION" source="#Cube_001-mesh-positions"/>
        </vertices>
        <triangles material="Material_001-material" count="12">
          <input semantic="VERTEX" source="#Cube_001-mesh-vertices" offset="0"/>
          <input semantic="NORMAL" source="#Cube_001-mesh-normals" offset="1"/>
          <input semantic="TEXCOORD" source="#Cube_001-mesh-map-0" offset="2" set="0"/>
          <p>1 0 0 2 0 1 0 0 2 3 0 3 6 0 4 2 0 5 7 0 6 4 0 7 6 0 8 5 0 9 0 0 10 4 0 11 6 1 12 0 1 13 2 1 14 3 0 15 5 0 16 7 0 17 1 0 18 3 0 19 2 0 20 3 0 21 7 0 22 6 0 23 7 0 24 5 0 25 4 0 26 5 0 27 1 0 28 0 0 29 6 1 30 4 1 31 0 1 32 3 0 33 1 0 34 5 0 35</p>
        </triangles>
      </mesh>
    </geometry>
    <geometry id="Cylinder-mesh" name="Cylinder">
      <mesh>
        <source id="Cylinder-mesh-positions">
          <float_array id="Cylinder-mesh-positions-array" count="192">0 0.01627814 -0.4245374 0 0.01627814 0.4245374 0.002918541 0.01596534 -0.4245374 0.002918541 0.01596534 0.4245374 0.005724966 0.01503902 -0.4245374 0.005724966 0.01503902 0.4245374 0.00831139 0.01353478 -0.4245374 0.00831139 0.01353478 0.4245374 0.01057839 0.01151037 -0.4245374 0.01057839 0.01151037 0.4245374 0.01243889 0.009043633 -0.4245374 0.01243889 0.009043633 0.4245374 0.01382136 0.006229341 -0.4245374 0.01382136 0.006229341 0.4245374 0.01467269 0.003175675 -0.4245374 0.01467269 0.003175675 0.4245374 0.01496016 0 -0.4245374 0.01496016 0 0.4245374 0.01467269 -0.003175675 -0.4245374 0.01467269 -0.003175675 0.4245374 0.01382136 -0.006229341 -0.4245374 0.01382136 -0.006229341 0.4245374 0.01243889 -0.009043633 -0.4245374 0.01243889 -0.009043633 0.4245374 0.01057839 -0.01151037 -0.4245374 0.01057839 -0.01151037 0.4245374 0.00831139 -0.01353478 -0.4245374 0.00831139 -0.01353478 0.4245374 0.005724966 -0.01503902 -0.4245374 0.005724966 -0.01503902 0.4245374 0.002918541 -0.01596534 -0.4245374 0.002918541 -0.01596534 0.4245374 0 -0.01627814 -0.4245374 0 -0.01627814 0.4245374 -0.002918541 -0.01596534 -0.4245374 -0.002918541 -0.01596534 0.4245374 -0.005724966 -0.01503902 -0.4245374 -0.005724966 -0.01503902 0.4245374 -0.00831139 -0.01353478 -0.4245374 -0.00831139 -0.01353478 0.4245374 -0.01057839 -0.01151037 -0.4245374 -0.01057839 -0.01151037 0.4245374 -0.01243889 -0.009043633 -0.4245374 -0.01243889 -0.009043633 0.4245374 -0.01382136 -0.006229341 -0.4245374 -0.01382136 -0.006229341 0.4245374 -0.01467269 -0.003175675 -0.4245374 -0.01467269 -0.003175675 0.4245374 -0.01496016 0 -0.4245374 -0.01496016 0 0.4245374 -0.01467269 0.003175675 -0.4245374 -0.01467269 0.003175675 0.4245374 -0.01382136 0.006229341 -0.4245374 -0.01382136 0.006229341 0.4245374 -0.01243889 0.009043633 -0.4245374 -0.01243889 0.009043633 0.4245374 -0.01057839 0.01151037 -0.4245374 -0.01057839 0.01151037 0.4245374 -0.00831139 0.01353478 -0.4245374 -0.00831139 0.01353478 0.4245374 -0.005724966 0.01503902 -0.4245374 -0.005724966 0.01503902 0.4245374 -0.002918541 0.01596534 -0.4245374 -0.002918541 0.01596534 0.4245374</float_array>
          <technique_common>
            <accessor source="#Cylinder-mesh-positions-array" count="64" stride="3">
              <param name="X" type="float"/>
              <param name="Y" type="float"/>
              <param name="Z" type="float"/>
            </accessor>
          </technique_common>
        </source>
        <source id="Cylinder-mesh-normals">
          <float_array id="Cylinder-mesh-normals-array" count="168">0.1065586 0.9943065 0 0.3134388 0.9496085 0 0.5027538 0.8644297 0 0.6660676 0.7458915 0 0.7983762 0.6021591 0 0.8975526 0.4409075 0 0.9632673 0.2685445 0 0.9959284 0.09014844 0 0.9959284 -0.09014844 0 0.9632671 -0.2685452 0 0.8975524 -0.4409081 0 0.7983759 -0.6021596 0 0.666067 -0.7458919 0 0.5027537 -0.8644298 0 0.3134388 -0.9496085 0 0.1065586 -0.9943065 0 -0.1065586 -0.9943065 0 -0.3134388 -0.9496085 0 -0.5027538 -0.8644297 0 -0.6660676 -0.7458915 0 -0.7983762 -0.6021591 0 -0.8975526 -0.4409075 0 -0.9632673 -0.2685445 0 -0.9959284 -0.09014844 0 -0.9959284 0.09014844 0 -0.9632671 0.2685452 0 -0.8975524 0.4409081 0 -0.7983759 0.6021596 0 -0.666067 0.7458919 0 -0.5027537 0.8644298 0 0 0 1 -0.3134388 0.9496085 0 -0.1065586 0.9943065 0 0 0 -1 0.5027537 0.8644298 0 0.666067 0.7458919 0 0.7983759 0.6021596 0 0.8975524 0.4409081 0 0.9632671 0.2685452 0 0.9632673 -0.2685445 0 0.8975526 -0.4409075 0 0.7983762 -0.6021591 0 0.6660676 -0.7458915 0 0.5027538 -0.8644297 0 -0.5027537 -0.8644298 0 -0.666067 -0.7458919 0 -0.7983759 -0.6021596 0 -0.8975524 -0.4409081 0 -0.9632671 -0.2685452 0 -0.9632673 0.2685445 0 -0.8975526 0.4409075 0 -0.7983762 0.6021591 0 -0.6660676 0.7458915 0 -0.5027538 0.8644297 0 -1.59408e-5 0 1 1.59408e-5 0 1</float_array>
          <technique_common>
            <accessor source="#Cylinder-mesh-normals-array" count="56" stride="3">
              <param name="X" type="float"/>
              <param name="Y" type="float"/>
              <param name="Z" type="float"/>
            </accessor>
          </technique_common>
        </source>
        <source id="Cylinder-mesh-map-0">
          <float_array id="Cylinder-mesh-map-0-array" count="744">1 1 0.96875 0.5 1 0.5 0.96875 1 0.9375 0.5 0.96875 0.5 0.9375 1 0.90625 0.5 0.9375 0.5 0.90625 1 0.875 0.5 0.90625 0.5 0.875 1 0.84375 0.5 0.875 0.5 0.84375 1 0.8125 0.5 0.84375 0.5 0.8125 1 0.78125 0.5 0.8125 0.5 0.78125 1 0.75 0.5 0.78125 0.5 0.75 1 0.71875 0.5 0.75 0.5 0.71875 1 0.6875 0.5 0.71875 0.5 0.6875 1 0.65625 0.5 0.6875 0.5 0.65625 1 0.625 0.5 0.65625 0.5 0.625 1 0.59375 0.5 0.625 0.5 0.59375 1 0.5625 0.5 0.59375 0.5 0.5625 1 0.53125 0.5 0.5625 0.5 0.53125 1 0.5 0.5 0.53125 0.5 0.5 1 0.46875 0.5 0.5 0.5 0.46875 1 0.4375 0.5 0.46875 0.5 0.4375 1 0.40625 0.5 0.4375 0.5 0.40625 1 0.375 0.5 0.40625 0.5 0.375 1 0.34375 0.5 0.375 0.5 0.34375 1 0.3125 0.5 0.34375 0.5 0.3125 1 0.28125 0.5 0.3125 0.5 0.28125 1 0.25 0.5 0.28125 0.5 0.25 1 0.21875 0.5 0.25 0.5 0.21875 1 0.1875 0.5 0.21875 0.5 0.1875 1 0.15625 0.5 0.1875 0.5 0.15625 1 0.125 0.5 0.15625 0.5 0.125 1 0.09375 0.5 0.125 0.5 0.09375 1 0.0625 0.5 0.09375 0.5 0.4197056 0.4197056 0.3833369 0.4495527 0.08029437 0.4197056 0.0625 1 0.03125 0.5 0.0625 0.5 0.03125 1 0 0.5 0.03125 0.5 0.6166632 0.4495527 0.658156 0.4717311 0.8833369 0.4495527 1 1 0.96875 1 0.96875 0.5 0.96875 1 0.9375 1 0.9375 0.5 0.9375 1 0.90625 1 0.90625 0.5 0.90625 1 0.875 1 0.875 0.5 0.875 1 0.84375 1 0.84375 0.5 0.84375 1 0.8125 1 0.8125 0.5 0.8125 1 0.78125 1 0.78125 0.5 0.78125 1 0.75 1 0.75 0.5 0.75 1 0.71875 1 0.71875 0.5 0.71875 1 0.6875 1 0.6875 0.5 0.6875 1 0.65625 1 0.65625 0.5 0.65625 1 0.625 1 0.625 0.5 0.625 1 0.59375 1 0.59375 0.5 0.59375 1 0.5625 1 0.5625 0.5 0.5625 1 0.53125 1 0.53125 0.5 0.53125 1 0.5 1 0.5 0.5 0.5 1 0.46875 1 0.46875 0.5 0.46875 1 0.4375 1 0.4375 0.5 0.4375 1 0.40625 1 0.40625 0.5 0.40625 1 0.375 1 0.375 0.5 0.375 1 0.34375 1 0.34375 0.5 0.34375 1 0.3125 1 0.3125 0.5 0.3125 1 0.28125 1 0.28125 0.5 0.28125 1 0.25 1 0.25 0.5 0.25 1 0.21875 1 0.21875 0.5 0.21875 1 0.1875 1 0.1875 0.5 0.1875 1 0.15625 1 0.15625 0.5 0.15625 1 0.125 1 0.125 0.5 0.125 1 0.09375 1 0.09375 0.5 0.09375 1 0.0625 1 0.0625 0.5 0.341844 0.4717311 0.2968217 0.4853885 0.25 0.49 0.25 0.49 0.2031783 0.4853885 0.341844 0.4717311 0.2031783 0.4853885 0.1581559 0.4717311 0.341844 0.4717311 0.1581559 0.4717311 0.1166631 0.4495527 0.341844 0.4717311 0.1166631 0.4495527 0.08029437 0.4197056 0.3833369 0.4495527 0.341844 0.4717311 0.1166631 0.4495527 0.3833369 0.4495527 0.08029437 0.4197056 0.05044728 0.3833369 0.4197056 0.4197056 0.05044728 0.3833369 0.02826887 0.341844 0.4495527 0.3833369 0.4197056 0.4197056 0.05044728 0.3833369 0.4495527 0.3833369 0.02826887 0.341844 0.01461148 0.2968217 0.4853885 0.2968217 0.01461148 0.2968217 0.00999999 0.25 0.49 0.25 0.00999999 0.25 0.01461148 0.2031783 0.4853885 0.2031783 0.01461148 0.2031783 0.02826887 0.1581559 0.4717311 0.1581559 0.02826887 0.1581559 0.05044728 0.1166631 0.4717311 0.1581559 0.05044728 0.1166631 0.08029437 0.08029437 0.4495527 0.1166631 0.4717311 0.1581559 0.05044728 0.1166631 0.4495527 0.1166631 0.08029437 0.08029437 0.1166631 0.05044728 0.4197056 0.08029437 0.1166631 0.05044728 0.1581559 0.02826887 0.3833369 0.05044728 0.4197056 0.08029437 0.1166631 0.05044728 0.3833369 0.05044728 0.1581559 0.02826887 0.2031783 0.01461148 0.25 0.00999999 0.25 0.00999999 0.2968217 0.01461148 0.1581559 0.02826887 0.2968217 0.01461148 0.341844 0.02826887 0.1581559 0.02826887 0.341844 0.02826887 0.3833369 0.05044728 0.1581559 0.02826887 0.4197056 0.08029437 0.4495527 0.1166631 0.08029437 0.08029437 0.4717311 0.1581559 0.4853885 0.2031783 0.01461148 0.2031783 0.4853885 0.2031783 0.49 0.25 0.00999999 0.25 0.49 0.25 0.4853885 0.2968217 0.01461148 0.2968217 0.4853885 0.2968217 0.4717311 0.341844 0.02826887 0.341844 0.4717311 0.341844 0.4495527 0.3833369 0.02826887 0.341844 0.0625 1 0.03125 1 0.03125 0.5 0.03125 1 0 1 0 0.5 0.7031784 0.4853885 0.75 0.49 0.7968217 0.4853885 0.7968217 0.4853885 0.841844 0.4717311 0.7031784 0.4853885 0.841844 0.4717311 0.8833369 0.4495527 0.658156 0.4717311 0.7031784 0.4853885 0.841844 0.4717311 0.658156 0.4717311 0.8833369 0.4495527 0.9197056 0.4197056 0.5802944 0.4197056 0.9197056 0.4197056 0.9495527 0.3833369 0.5504473 0.3833369 0.9495527 0.3833369 0.9717311 0.341844 0.5504473 0.3833369 0.9717311 0.341844 0.9853885 0.2968217 0.5282689 0.341844 0.5504473 0.3833369 0.9717311 0.341844 0.5282689 0.341844 0.9853885 0.2968217 0.99 0.25 0.51 0.25 0.99 0.25 0.9853885 0.2031783 0.5146116 0.2031783 0.9853885 0.2031783 0.9717311 0.1581559 0.5146116 0.2031783 0.9717311 0.1581559 0.9495527 0.1166631 0.5282689 0.1581559 0.5146116 0.2031783 0.9717311 0.1581559 0.5282689 0.1581559 0.9495527 0.1166631 0.9197056 0.08029437 0.5802944 0.08029437 0.9197056 0.08029437 0.8833369 0.05044728 0.6166632 0.05044728 0.8833369 0.05044728 0.841844 0.02826887 0.6166632 0.05044728 0.841844 0.02826887 0.7968217 0.01461148 0.658156 0.02826887 0.6166632 0.05044728 0.841844 0.02826887 0.658156 0.02826887 0.7968217 0.01461148 0.75 0.00999999 0.7031784 0.01461148 0.7031784 0.01461148 0.658156 0.02826887 0.7968217 0.01461148 0.6166632 0.05044728 0.5802944 0.08029437 0.9197056 0.08029437 0.5802944 0.08029437 0.5504473 0.1166631 0.9495527 0.1166631 0.5504473 0.1166631 0.5282689 0.1581559 0.9495527 0.1166631 0.5146116 0.2031783 0.51 0.25 0.99 0.25 0.51 0.25 0.5146116 0.2968217 0.9853885 0.2968217 0.5146116 0.2968217 0.5282689 0.341844 0.9853885 0.2968217 0.5504473 0.3833369 0.5802944 0.4197056 0.9197056 0.4197056 0.5802944 0.4197056 0.6166632 0.4495527 0.8833369 0.4495527</float_array>
          <technique_common>
            <accessor source="#Cylinder-mesh-map-0-array" count="372" stride="2">
              <param name="S" type="float"/>
              <param name="T" type="float"/>
            </accessor>
          </technique_common>
        </source>
        <vertices id="Cylinder-mesh-vertices">
          <input semantic="POSITION" source="#Cylinder-mesh-positions"/>
        </vertices>
        <triangles count="124">
          <input semantic="VERTEX" source="#Cylinder-mesh-vertices" offset="0"/>
          <input semantic="NORMAL" source="#Cylinder-mesh-normals" offset="1"/>
          <input semantic="TEXCOORD" source="#Cylinder-mesh-map-0" offset="2" set="0"/>
          <p>1 0 0 2 0 1 0 0 2 3 1 3 4 1 4 2 1 5 5 2 6 6 2 7 4 2 8 7 3 9 8 3 10 6 3 11 9 4 12 10 4 13 8 4 14 11 5 15 12 5 16 10 5 17 13 6 18 14 6 19 12 6 20 15 7 21 16 7 22 14 7 23 17 8 24 18 8 25 16 8 26 19 9 27 20 9 28 18 9 29 21 10 30 22 10 31 20 10 32 23 11 33 24 11 34 22 11 35 25 12 36 26 12 37 24 12 38 27 13 39 28 13 40 26 13 41 29 14 42 30 14 43 28 14 44 31 15 45 32 15 46 30 15 47 33 16 48 34 16 49 32 16 50 35 17 51 36 17 52 34 17 53 37 18 54 38 18 55 36 18 56 39 19 57 40 19 58 38 19 59 41 20 60 42 20 61 40 20 62 43 21 63 44 21 64 42 21 65 45 22 66 46 22 67 44 22 68 47 23 69 48 23 70 46 23 71 49 24 72 50 24 73 48 24 74 51 25 75 52 25 76 50 25 77 53 26 78 54 26 79 52 26 80 55 27 81 56 27 82 54 27 83 57 28 84 58 28 85 56 28 86 59 29 87 60 29 88 58 29 89 9 30 90 7 30 91 57 30 92 61 31 93 62 31 94 60 31 95 63 32 96 0 32 97 62 32 98 58 33 99 60 33 100 6 33 101 1 0 102 3 0 103 2 0 104 3 1 105 5 1 106 4 1 107 5 34 108 7 34 109 6 34 110 7 35 111 9 35 112 8 35 113 9 36 114 11 36 115 10 36 116 11 37 117 13 37 118 12 37 119 13 38 120 15 38 121 14 38 122 15 7 123 17 7 124 16 7 125 17 8 126 19 8 127 18 8 128 19 39 129 21 39 130 20 39 131 21 40 132 23 40 133 22 40 134 23 41 135 25 41 136 24 41 137 25 42 138 27 42 139 26 42 140 27 43 141 29 43 142 28 43 143 29 14 144 31 14 145 30 14 146 31 15 147 33 15 148 32 15 149 33 16 150 35 16 151 34 16 152 35 17 153 37 17 154 36 17 155 37 44 156 39 44 157 38 44 158 39 45 159 41 45 160 40 45 161 41 46 162 43 46 163 42 46 164 43 47 165 45 47 166 44 47 167 45 48 168 47 48 169 46 48 170 47 23 171 49 23 172 48 23 173 49 24 174 51 24 175 50 24 176 51 49 177 53 49 178 52 49 179 53 50 180 55 50 181 54 50 182 55 51 183 57 51 184 56 51 185 57 52 186 59 52 187 58 52 188 59 53 189 61 53 190 60 53 191 5 54 192 3 54 193 1 54 194 1 30 195 63 30 196 5 30 197 63 30 198 61 30 199 5 30 200 61 30 201 59 30 202 5 30 203 59 30 204 57 30 205 7 30 206 5 30 207 59 30 208 7 30 209 57 30 210 55 30 211 9 30 212 55 30 213 53 30 214 11 30 215 9 30 216 55 30 217 11 30 218 53 30 219 51 30 220 15 30 221 51 30 222 49 30 223 17 30 224 49 30 225 47 30 226 19 30 227 47 30 228 45 30 229 21 30 230 45 30 231 43 30 232 21 30 233 43 30 234 41 30 235 23 30 236 21 30 237 43 30 238 23 30 239 41 30 240 39 30 241 25 30 242 39 30 243 37 30 244 27 30 245 25 30 246 39 30 247 27 30 248 37 55 249 35 55 250 33 55 251 33 30 252 31 30 253 37 30 254 31 30 255 29 30 256 37 30 257 29 30 258 27 30 259 37 30 260 25 30 261 23 30 262 41 30 263 21 30 264 19 30 265 47 30 266 19 30 267 17 30 268 49 30 269 17 30 270 15 30 271 51 30 272 15 30 273 13 30 274 53 30 275 13 30 276 11 30 277 53 30 278 61 31 279 63 31 280 62 31 281 63 32 282 1 32 283 0 32 284 62 33 285 0 33 286 2 33 287 2 33 288 4 33 289 62 33 290 4 33 291 6 33 292 60 33 293 62 33 294 4 33 295 60 33 296 6 33 297 8 33 298 56 33 299 8 33 300 10 33 301 54 33 302 10 33 303 12 33 304 54 33 305 12 33 306 14 33 307 52 33 308 54 33 309 12 33 310 52 33 311 14 33 312 16 33 313 48 33 314 16 33 315 18 33 316 46 33 317 18 33 318 20 33 319 46 33 320 20 33 321 22 33 322 44 33 323 46 33 324 20 33 325 44 33 326 22 33 327 24 33 328 40 33 329 24 33 330 26 33 331 38 33 332 26 33 333 28 33 334 38 33 335 28 33 336 30 33 337 36 33 338 38 33 339 28 33 340 36 33 341 30 33 342 32 33 343 34 33 344 34 33 345 36 33 346 30 33 347 38 33 348 40 33 349 24 33 350 40 33 351 42 33 352 22 33 353 42 33 354 44 33 355 22 33 356 46 33 357 48 33 358 16 33 359 48 33 360 50 33 361 14 33 362 50 33 363 52 33 364 14 33 365 54 33 366 56 33 367 8 33 368 56 33 369 58 33 370 6 33 371</p>
        </triangles>
      </mesh>
    </geometry>
  </library_geometries>
  <library_visual_scenes>
    <visual_scene id="Scene" name="Scene">
      <node id="Text_001" name="Text.001" type="NODE">
        <matrix sid="transform">0.0187985 2.9474e-9 0.9632658 0.04 0.0674286 -8.21708e-10 -0.2685499 0.04 0 0.07 -4.37114e-8 0.77 0 0 0 1</matrix>
        <instance_geometry url="#Text_001-mesh" name="Text.001">
          <bind_material>
            <technique_common>
              <instance_material symbol="Material_003-material" target="#Material_003-material">
                <bind_vertex_input semantic="UVMap" input_semantic="TEXCOORD" input_set="0"/>
              </instance_material>
            </technique_common>
          </bind_material>
        </instance_geometry>
      </node>
      <node id="Cube" name="Cube" type="NODE">
        <matrix sid="transform">0.268545 4.21057e-8 0.9632671 0.05765907 0.9632671 -1.17385e-8 -0.268545 0.1952195 0 1 -4.37114e-8 0.7950181 0 0 0 1</matrix>
        <instance_geometry url="#Cube_001-mesh" name="Cube">
          <bind_material>
            <technique_common>
              <instance_material symbol="Material_001-material" target="#Material_001-material">
                <bind_vertex_input semantic="UVMap" input_semantic="TEXCOORD" input_set="0"/>
              </instance_material>
            </technique_common>
          </bind_material>
        </instance_geometry>
      </node>
      <node id="Cylinder" name="Cylinder" type="NODE">
        <matrix sid="transform">1 0 0 -0.005850613 0 1 0 -0.01903825 0 0 1 0.4245375 0 0 0 1</matrix>
        <instance_geometry url="#Cylinder-mesh" name="Cylinder"/>
      </node>
      <node id="Camera" name="Camera" type="NODE">
        <matrix sid="transform">0.6859207 -0.3240135 0.6515582 7.358891 0.7276763 0.3054208 -0.6141704 -6.925791 0 0.8953956 0.4452714 4.958309 0 0 0 1</matrix>
        <instance_camera url="#Camera-camera"/>
      </node>
      <node id="Light" name="Light" type="NODE">
        <matrix sid="transform">-0.2908646 -0.7711008 0.5663932 4.076245 0.9551712 -0.1998834 0.2183912 1.005454 -0.05518906 0.6045247 0.7946723 5.903862 0 0 0 1</matrix>
        <instance_light url="#Light-light"/>
      </node>
    </visual_scene>
  </library_visual_scenes>
  <scene>
    <instance_visual_scene url="#Scene"/>
  </scene>
</COLLADA>